<svg xmlns="http://www.w3.org/2000/svg" width="17.078" height="17.078" viewBox="0 0 17.078 17.078">
  <g id="Icon_ionic-ios-information-circle-outline" data-name="Icon ionic-ios-information-circle-outline" transform="translate(-3.375 -3.375)">
    <path id="Path_171" data-name="Path 171" d="M16.552,11.526a.846.846,0,1,1,.842.821A.822.822,0,0,1,16.552,11.526Zm.057,1.466h1.568v5.916H16.609Z" transform="translate(-5.483 -3.052)"/>
    <path id="Path_172" data-name="Path 172" d="M11.914,4.524A7.387,7.387,0,1,1,6.688,6.688a7.341,7.341,0,0,1,5.226-2.164m0-1.149a8.539,8.539,0,1,0,8.539,8.539,8.538,8.538,0,0,0-8.539-8.539Z" transform="translate(0 0)"/>
  </g>
</svg>
