<svg xmlns="http://www.w3.org/2000/svg" xmlns:xlink="http://www.w3.org/1999/xlink" viewBox="0 0 96 96"><defs><style>.cls-1{fill:none;}.cls-2{fill:#002e47;}.cls-3{fill:#f14b3e;}.cls-4{fill:#fff;stroke:#002e47;stroke-miterlimit:10;stroke-width:2px;}.cls-5{clip-path:url(#clip-path);}</style><clipPath id="clip-path"><path class="cls-1" d="M8,8V68H57.84A9.88,9.88,0,0,1,57,64V56a10,10,0,0,1,20,0v8a9.88,9.88,0,0,1-.84,4H88V8Z"/></clipPath></defs><g id="Your_Icons" data-name="Your Icons"><polygon class="cls-2" points="67 81.09 59.61 77.92 60.39 76.08 67 78.91 73.61 76.08 74.39 77.92 67 81.09"/><path class="cls-2" d="M67,48a8,8,0,0,1,8,8v8a8,8,0,0,1-16,0V56a8,8,0,0,1,8-8m0-2A10,10,0,0,0,57,56v8a10,10,0,0,0,20,0V56A10,10,0,0,0,67,46Z"/><circle class="cls-3" cx="70" cy="66" r="2"/><line class="cls-4" x1="67" y1="51" x2="67" y2="59"/><polygon class="cls-2" points="67 88.08 61.63 85.93 62.37 84.07 67 85.92 71.63 84.07 72.37 85.93 67 88.08"/><g class="cls-5"><rect class="cls-2" x="8" y="14" width="79" height="2"/><path class="cls-2" d="M86,10V66H10V10H86m2-2H8V68H88V8Z"/><path class="cls-2" d="M51,28v2H27V28H51m2-2H25v6H53V26Z"/><path class="cls-2" d="M51,43v2H27V43H51m2-2H25v6H53V41Z"/><rect class="cls-2" x="80" y="11" width="2" height="2"/><rect class="cls-2" x="76" y="11" width="2" height="2"/><rect class="cls-2" x="72" y="11" width="2" height="2"/><rect class="cls-2" x="25" y="22" width="21" height="2"/><path class="cls-2" d="M43,58v2H15V58H43m2-2H13v6H45V56Z"/><rect class="cls-2" x="13" y="52" width="11" height="2"/><rect class="cls-2" x="28" y="52" width="17" height="2"/><rect class="cls-2" x="25" y="37" width="12" height="2"/><polygon class="cls-2" points="73.61 43.92 67 41.09 60.39 43.92 59.61 42.08 67 38.91 74.39 42.08 73.61 43.92"/><rect class="cls-3" x="81" y="20" width="2" height="42"/><rect class="cls-2" x="81" y="29" width="2" height="7"/><polygon class="cls-3" points="17 46.41 14.29 43.71 15.71 42.29 17 43.59 20.29 40.29 21.71 41.71 17 46.41"/><polygon class="cls-3" points="17 31.41 14.29 28.71 15.71 27.29 17 28.59 20.29 25.29 21.71 26.71 17 31.41"/></g></g></svg>