<svg xmlns="http://www.w3.org/2000/svg" xmlns:xlink="http://www.w3.org/1999/xlink" viewBox="0 0 96 96"><defs><style>.cls-1{fill:none;}.cls-2{fill:#fff;stroke:#002e47;stroke-miterlimit:10;stroke-width:2px;}.cls-3{clip-path:url(#clip-path);}.cls-4{fill:#002e47;}.cls-5{clip-path:url(#clip-path-2);}.cls-6{fill:#f14b3e;}</style><clipPath id="clip-path"><polygon class="cls-1" points="50 24 50 8 8 8 8 84 50 84 50 60 26 60 26 24 50 24"/></clipPath><clipPath id="clip-path-2"><path class="cls-1" d="M27,24V60H64.34L62.9,57.51l5.2-3,1.69,2.93A11.74,11.74,0,0,1,73,57a11.43,11.43,0,0,1,3,.39V24Z"/></clipPath></defs><g id="Your_Icons"><line class="cls-2" x1="23" y1="13" x2="35" y2="13"/><g class="cls-3"><path class="cls-4" d="M8,8V84H50V8Zm40,2V74H10V10ZM10,82V76H48v6Z"/></g><path class="cls-4" d="M84.62,66a12,12,0,0,0-3.21-5.57l1.69-2.92-5.2-3-1.69,2.93a11.93,11.93,0,0,0-6.42,0L68.1,54.51l-5.2,3,1.69,2.92A12,12,0,0,0,61.38,66H58v6h3.38a12,12,0,0,0,3.21,5.57L62.9,80.49l5.2,3,1.69-2.93a11.93,11.93,0,0,0,6.42,0l1.69,2.93,5.2-3-1.69-2.92A12,12,0,0,0,84.62,72H88V66ZM86,70H83a9.48,9.48,0,0,1-.42,2,9.8,9.8,0,0,1-2.17,3.75,9,9,0,0,1-1.52,1.36l0,0,1,1.69.52.91-1.74,1-.52-.9-1-1.7,0,0a9.87,9.87,0,0,1-8.2,0l0,0-1,1.7-.52.9-1.74-1,.52-.91,1-1.69,0,0a9,9,0,0,1-1.52-1.36A9.8,9.8,0,0,1,63.47,72a9.48,9.48,0,0,1-.42-2H60V68h3a9.48,9.48,0,0,1,.42-2,9.8,9.8,0,0,1,2.17-3.75,9,9,0,0,1,1.52-1.36l0,0-1-1.69-.52-.91,1.74-1,.52.9,1,1.7,0,0a9.87,9.87,0,0,1,8.2,0l0,0,1-1.7.52-.9,1.74,1-.52.91-1,1.69,0,0a9,9,0,0,1,1.52,1.36A9.8,9.8,0,0,1,82.53,66,9.48,9.48,0,0,1,83,68h3Z"/><path class="cls-4" d="M73,63a6,6,0,1,0,6,6A6,6,0,0,0,73,63Zm0,10a4,4,0,1,1,4-4A4,4,0,0,1,73,73Z"/><g class="cls-5"><path class="cls-6" d="M29,30v2H74V30Z"/><path class="cls-4" d="M27,24V60H76V24ZM74,58H29V26H74Z"/><rect class="cls-4" x="41.19" y="44" width="20.62" height="2" transform="translate(-4.63 84.07) rotate(-75.98)"/><polygon class="cls-4" points="43.29 53.71 34.59 45 43.29 36.29 44.71 37.71 37.41 45 44.71 52.29 43.29 53.71"/><polygon class="cls-4" points="59.71 53.71 58.29 52.29 65.59 45 58.29 37.71 59.71 36.29 68.41 45 59.71 53.71"/></g><circle class="cls-6" cx="16" cy="69" r="2"/></g></svg>