<svg xmlns="http://www.w3.org/2000/svg" xmlns:xlink="http://www.w3.org/1999/xlink" viewBox="0 0 96 96"><defs><style>.cls-1{fill:none;}.cls-2{clip-path:url(#clip-path);}.cls-3{fill:#002e47;}.cls-4{clip-path:url(#clip-path-2);}.cls-5{fill:#f14b3e;}</style><clipPath id="clip-path"><path class="cls-1" d="M24,44V82H60V73H57.5a3.5,3.5,0,0,1,0-7H60V55H50V44Z"/></clipPath><clipPath id="clip-path-2"><path class="cls-1" d="M24,56H8V18H44V44H24Z"/></clipPath></defs><g id="Your_Icons" data-name="Your Icons"><g class="cls-2"><path class="cls-3" d="M58,46V80H26V46H58m2-2H24V82H60V44Z"/></g><path class="cls-3" d="M69.5,88H80a8,8,0,0,0,8-8V74a7.93,7.93,0,0,0-2-5.25,19,19,0,0,0-2.9-2.31L73.9,59.11a3.42,3.42,0,0,0-2.57-.73A3.51,3.51,0,0,0,69,59.67a3.56,3.56,0,0,0-.73,2.58,3.48,3.48,0,0,0,1.3,2.34L71.32,66H57.5a3.5,3.5,0,0,0,0,7h6.85A3.28,3.28,0,0,0,64,74.5a3.48,3.48,0,0,0,1.66,3,3.42,3.42,0,0,0-.66,2,3.48,3.48,0,0,0,1.66,3,3.42,3.42,0,0,0-.66,2A3.5,3.5,0,0,0,69.5,88Zm.5-2h-.5a1.5,1.5,0,0,1,0-3H71V81H68.5a1.5,1.5,0,0,1,0-3H71V76H67.5a1.5,1.5,0,0,1,0-3H71V71H57.5a1.5,1.5,0,0,1,0-3H77.05l-2.52-2L70.8,63a1.48,1.48,0,0,1-.56-1,1.43,1.43,0,0,1,.32-1.1,1.48,1.48,0,0,1,2.1-.24L79.35,66c.81.65,1.67,1.27,2.44,2,1,.91,2.26,1.49,3.08,2.6A5.86,5.86,0,0,1,86,74v6a6,6,0,0,1-6,6H70Z"/><g class="cls-4"><path class="cls-3" d="M32.06,31.31l1.23-2.12L29.5,27l-1.23,2.12a8.72,8.72,0,0,0-4.68,0L22.36,27l-3.79,2.17,1.23,2.12a8.68,8.68,0,0,0-2.34,4H15v4.34h2.46a8.68,8.68,0,0,0,2.34,4l-1.23,2.12L22.36,48l1.23-2.12a8.72,8.72,0,0,0,4.68,0L29.5,48l3.79-2.17-1.23-2.12a8.68,8.68,0,0,0,2.34-4h2.46V35.34H34.4A8.68,8.68,0,0,0,32.06,31.31Zm3.34,5.48v1.44H33.18a6.34,6.34,0,0,1-.31,1.45,7.16,7.16,0,0,1-1.58,2.72,6.49,6.49,0,0,1-1.11,1l0,0,.71,1.22.38.66L30,46l-.38-.65-.71-1.23,0,0a7.26,7.26,0,0,1-6,0l0,0-.71,1.23-.38.65-1.27-.72.38-.66.71-1.22,0,0a6.43,6.43,0,0,1-1.1-1A7.16,7.16,0,0,1,19,39.68a6.34,6.34,0,0,1-.31-1.45H16.46V36.79h2.22A6.34,6.34,0,0,1,19,35.34a7.16,7.16,0,0,1,1.58-2.72,6.43,6.43,0,0,1,1.1-1l0,0-.71-1.22-.38-.66L21.83,29l.38.65.71,1.23,0,0a7.26,7.26,0,0,1,6,0l0,0,.71-1.23L30,29l1.27.72-.38.66-.71,1.22,0,0a6.49,6.49,0,0,1,1.11,1,7.16,7.16,0,0,1,1.58,2.72,6.34,6.34,0,0,1,.31,1.45H35.4Z"/><path class="cls-3" d="M25.93,33.17a4.34,4.34,0,1,0,4.37,4.34A4.36,4.36,0,0,0,25.93,33.17Zm0,7.24a2.9,2.9,0,1,1,2.91-2.9A2.9,2.9,0,0,1,25.93,40.41Z"/><path class="cls-3" d="M37,18H8V56H44V18Zm5,2v3H39V20Zm0,26v8H10V20H37v5h5Z"/></g><path class="cls-5" d="M49,72.45a11,11,0,0,1-18-7.45h2A9,9,0,0,0,42,73a8.91,8.91,0,0,0,5.61-2Z"/><path class="cls-3" d="M41,53.05v2A9,9,0,0,0,33.06,63h-2A11,11,0,0,1,41,53.05Z"/><path class="cls-3" d="M53,64a11,11,0,0,1-2.55,7L49,69.61A8.91,8.91,0,0,0,51,64a9,9,0,0,0-8-8.94v-2A11,11,0,0,1,53,64Z"/><path class="cls-3" d="M81,18H50V55H88V18Zm5,2v3H83V20Zm0,33H52V20H81v5h5Z"/><rect class="cls-5" x="57" y="31" width="24" height="2"/><path class="cls-3" d="M81,29V47H57V29H81m2-2H55V49H83V27Z"/><polygon class="cls-3" points="64.29 44.71 59.59 40 64.29 35.29 65.71 36.71 62.41 40 65.71 43.29 64.29 44.71"/><polygon class="cls-3" points="73.71 44.71 72.29 43.29 75.59 40 72.29 36.71 73.71 35.29 78.41 40 73.71 44.71"/><rect class="cls-3" x="63.9" y="39" width="10.2" height="2" transform="translate(16.23 99.81) rotate(-78.68)"/></g></svg>