<svg xmlns="http://www.w3.org/2000/svg" width="35" height="35" viewBox="0 0 35 35">
  <g id="Group_249" data-name="Group 249" transform="translate(-1533 -863)">
    <rect id="Rectangle_135" data-name="Rectangle 135" width="35" height="35" rx="6" transform="translate(1533 863)" fill="#ff4a55"/>
    <g id="compare_icon" data-name="compare icon" transform="translate(1537.938 868.37)">
      <path id="Path_161" data-name="Path 161" d="M13.378,18.569a.767.767,0,0,0-.546-.226.754.754,0,0,0-.546.226.767.767,0,0,0-.226.546.754.754,0,0,0,.226.546l.006.006,2.265,2.21H9.635a2.3,2.3,0,0,1-2.293-1.3,7.86,7.86,0,0,1-.518-3.224V9.9a3.856,3.856,0,1,0-1.543-.022v7.474a9.845,9.845,0,0,0,.518,3.6,3.83,3.83,0,0,0,3.836,2.464h4.944L12.391,25.63a.778.778,0,0,0,0,1.091l.006.006a.8.8,0,0,0,.54.215.745.745,0,0,0,.546-.226l3.175-3.164a1.218,1.218,0,0,0,.358-.865,1.192,1.192,0,0,0-.358-.854ZM6.108,8.423A2.315,2.315,0,1,1,8.423,6.108,2.315,2.315,0,0,1,6.108,8.423Z" transform="translate(-2.25 -2.25)" fill="#fff"/>
      <path id="Path_162" data-name="Path 162" d="M26.647,19.313V11.84a9.845,9.845,0,0,0-.518-3.6,3.837,3.837,0,0,0-3.836-2.464H17.349l2.188-2.216a.778.778,0,0,0,0-1.091l-.006-.006a.8.8,0,0,0-.54-.215.745.745,0,0,0-.546.226L15.272,5.64a1.218,1.218,0,0,0-.358.865,1.192,1.192,0,0,0,.358.854l3.285,3.274a.767.767,0,0,0,.546.226.754.754,0,0,0,.546-.226.767.767,0,0,0,.226-.546.754.754,0,0,0-.226-.546l-.006-.006L17.371,7.321h4.922a2.3,2.3,0,0,1,2.293,1.3A7.86,7.86,0,0,1,25.1,11.84v7.451a3.856,3.856,0,1,0,1.543.022ZM25.82,25.4a2.315,2.315,0,1,1,2.315-2.315A2.315,2.315,0,0,1,25.82,25.4Z" transform="translate(-4.987 -2.25)" fill="#fff"/>
    </g>
  </g>
</svg>
