<svg xmlns="http://www.w3.org/2000/svg" viewBox="0 0 96 96"><defs><style>.cls-1{fill:#f14b3e;}.cls-2{fill:#002e47;}</style></defs><g id="Your_Icons"><rect class="cls-1" x="50" y="23" width="2" height="46"/><path class="cls-2" d="M56,21.33V70.67L28,55.8V36.2L56,21.33M58,18,26,35V57L58,74V18Z"/><path class="cls-2" d="M22.23,37V55H12a2,2,0,0,1-2-2V39a2,2,0,0,1,2-2H22.23m2-2H12a4,4,0,0,0-4,4V53a4,4,0,0,0,4,4H24.23V35Z"/><path class="cls-2" d="M81.36,44v4H64.49V44H81.36m2-2H62.49v8H83.36V42Z"/><path class="cls-2" d="M86,30v4H64.49V30H86m2-2H62.49v8H88V28Z"/><path class="cls-2" d="M25.83,78h-12l3.35-19h9.08l2.88,1.44Zm-9.64-2h8l2.71-14.44L25.76,61H18.84Z"/><path class="cls-2" d="M77,58v4H64.49V58H77m2-2H62.49v8H79V56Z"/><circle class="cls-1" cx="20" cy="73" r="2"/></g></svg>