<svg xmlns="http://www.w3.org/2000/svg" xmlns:xlink="http://www.w3.org/1999/xlink" viewBox="0 0 96 96"><defs><style>.cls-1{fill:none;}.cls-2{fill:#002e47;}.cls-3{fill:#f14b3e;}.cls-4{clip-path:url(#clip-path);}</style><clipPath id="clip-path"><path class="cls-1" d="M78,70V21L65,8H25v9H45V39H25V70H45l-3-8,6-6,22,8v6Z"/></clipPath></defs><g id="Your_Icons"><path class="cls-2" d="M15.12,24.74c-.49-.06-1-.32-1-.79a1,1,0,0,1,1.08-1,1.79,1.79,0,0,1,1.22.49l.69.62,1-1.73-.43-.41A3.69,3.69,0,0,0,15.22,21,3,3,0,0,0,12.14,24c0,1.47,1,2.46,2.68,2.72a1.65,1.65,0,0,0,.33,0c1.22.16,1.65.45,1.65,1.12A1.12,1.12,0,0,1,15.6,29a2.28,2.28,0,0,1-1.75-.78l-.58-.9L12,29l.31.46A4.31,4.31,0,0,0,15.62,31a3.16,3.16,0,0,0,3.16-3.1C18.78,26.85,18.31,25.06,15.12,24.74Z"/><polygon class="cls-2" points="25.52 31 29.77 21.01 27.62 21.01 25.03 27.06 22.45 21.01 20.27 21.01 24.53 31 25.52 31"/><path class="cls-2" d="M36.24,25.28v2h2.34A2.82,2.82,0,0,1,36.06,29a3,3,0,0,1,0-5.92,2.79,2.79,0,0,1,1.52.5l.68.44,1-1.77-.59-.39a4.71,4.71,0,0,0-2.61-.8,5,5,0,0,0,0,10,4.84,4.84,0,0,0,4.65-3.76h.15v-2Z"/><path class="cls-2" d="M70,74V64L48,56l-2.31,2.28L45,59l0,0-.69.7L42,62l8,22H60l4,4L74,78ZM51.4,82,44.31,62.5l1.38-1.39L57,72.41,58.41,71,47.11,59.69l1.39-1.38L68,65.4V74l-8,8Zm10.51,1.09,7.18-7.18L71.17,78,64,85.17Z"/><circle class="cls-3" cx="57.71" cy="71.71" r="2"/><g class="cls-4"><path class="cls-2" d="M76,10V68H27V10H76m2-2H25V70H78V8Z"/></g><path class="cls-2" d="M67,12.83,73.17,19H67V12.83M65,8V21H78L65,8Z"/><rect class="cls-3" x="10" y="33" width="33" height="2"/><path class="cls-2" d="M43,19V37H10V19H43m2-2H8V39H45V17Z"/><path class="cls-2" d="M70,44a2,2,0,0,0-1.72,1H63.62A9,9,0,0,0,67,38V37h2V31H63v6h2v1a7,7,0,0,1-3,5.74V42H54v3H44V43H38v2.94A9,9,0,0,0,33,54v1H31v6h6V55H35V54a7,7,0,0,1,3-5.74V49h6V47H54v3h8V47h6.28A2,2,0,0,0,70,48a2,2,0,0,0,0-4ZM65,33h2v2H65ZM35,59H33V57h2Zm7-12H40V45h2Zm18,1H56V44h4Z"/></g></svg>