<?xml version="1.0" encoding="UTF-8"?><svg id="Layer_1" xmlns="http://www.w3.org/2000/svg" viewBox="0 0 768.04 678.6"><defs><style>.cls-1,.cls-2{fill:#ff4a55;}.cls-3{fill:#fff;}.cls-2{stroke:#fff;stroke-miterlimit:10;stroke-width:30px;}</style></defs><path class="cls-1" d="M388.44,356.48c0-8.8,7.2-16,16-16h32c8.8,0,16,7.2,16,16v32c0,8.8-7.2,16-16,16h-32c-8.8,0-16-7.2-16-16v-32Zm0-192c0-8.8,7.2-16,16-16h32c8.8,0,16,7.2,16,16v32c0,8.8-7.2,16-16,16h-32c-8.8,0-16-7.2-16-16v-32Zm16,144c-8.8,0-16-7.2-16-16v-32c0-8.8,7.2-16,16-16h32c8.8,0,16,7.2,16,16v32c0,8.8-7.2,16-16,16h-32ZM500.44,52.48c35.3,0,64,28.65,64,64V500.48c0,35.3-28.7,64-64,64h-160c-35.3,0-64-28.7-64-64V116.48c0-35.35,28.7-64,64-64h160Zm0,48h-160c-8.8,0-16,7.16-16,16V500.48c0,8.8,7.2,16,16,16h160c8.8,0,16-7.2,16-16V116.48c0-8.84-7.2-16-16-16ZM244.44,228.48H124.44c-13.25,0-24,10.7-24,24v240c0,13.3,10.75,24,24,24h121.3c3.1,18.3,11.3,34.8,23.1,48H124.44c-39.76,0-72-32.2-72-72V252.48c0-39.8,32.24-72,72-72h120v48Zm-48,144c8.8,0,16,7.2,16,16v32c0,8.8-7.2,16-16,16h-32c-8.8,0-16-7.2-16-16v-32c0-8.8,7.2-16,16-16h32Zm0-96c8.8,0,16,7.2,16,16v32c0,8.8-7.2,16-16,16h-32c-8.8,0-16-7.2-16-16v-32c0-8.8,7.2-16,16-16h32Z"/><circle class="cls-2" cx="580.21" cy="490.77" r="157.36"/><path class="cls-3" d="M587.26,398.23c5.5,0,10,4.5,10,10v55.84c0,5.5,4.5,10,10,10h52.71c5.5,0,10,4.5,10,10v12.7c0,5.5-4.5,10-10,10h-52.71c-5.5,0-10,4.5-10,10v56.53c0,5.5-4.5,10-10,10h-14.09c-5.5,0-10-4.5-10-10v-56.53c0-5.5-4.5-10-10-10h-52.71c-5.5,0-10-4.5-10-10v-12.7c0-5.5,4.5-10,10-10h52.71c5.5,0,10-4.5,10-10v-55.84c0-5.5,4.5-10,10-10h14.09Z"/></svg>