<svg xmlns="http://www.w3.org/2000/svg" xmlns:xlink="http://www.w3.org/1999/xlink" viewBox="0 0 96 96"><defs><style>.cls-1{fill:none;}.cls-2{clip-path:url(#clip-path);}.cls-3{fill:#002e47;}.cls-4{fill:#fff;}.cls-5{fill:#f14b3e;}</style><clipPath id="clip-path"><path class="cls-1" d="M88,21,75,8H36V36H48V70H65L77,58l5,5-7,7H88"/></clipPath></defs><g id="Your_Icons" data-name="Your Icons"><g class="cls-2"><path class="cls-3" d="M86,10V68H38V10H86m2-2H36V70H88V8Z"/></g><polygon class="cls-4" points="57 83 57 81.41 58.59 83 57 83"/><polygon class="cls-3" points="56 79 56 84 61 84 56 79 56 79"/><path class="cls-3" d="M46,38V84H10V38H46m2-2H8V86H48V36Z"/><path class="cls-3" d="M40,44v4H16V44H40m2-2H14v8H42V42Z"/><path class="cls-5" d="M40,76v4H38V76h2m2-2H36v8h6V74Z"/><rect class="cls-3" x="14" y="56" width="6" height="2"/><rect class="cls-3" x="25" y="56" width="6" height="2"/><rect class="cls-3" x="36" y="56" width="6" height="2"/><rect class="cls-3" x="14" y="62" width="6" height="2"/><rect class="cls-3" x="25" y="62" width="6" height="2"/><rect class="cls-3" x="36" y="62" width="6" height="2"/><rect class="cls-3" x="14" y="68" width="6" height="2"/><rect class="cls-3" x="25" y="68" width="6" height="2"/><rect class="cls-3" x="14" y="74" width="6" height="2"/><rect class="cls-3" x="25" y="74" width="6" height="2"/><rect class="cls-3" x="14" y="80" width="6" height="2"/><rect class="cls-3" x="25" y="80" width="6" height="2"/><rect class="cls-3" x="36" y="68" width="6" height="2"/><path class="cls-3" d="M77,12.83,83.17,19H77V12.83M75,8V21H88L75,8Z"/><rect class="cls-3" x="47" y="48" width="25" height="2"/><rect class="cls-3" x="66" y="54" width="16" height="2"/><rect class="cls-3" x="47" y="42" width="35" height="2"/><rect class="cls-3" x="47" y="54" width="17" height="2"/><polygon class="cls-4" points="57 83 57 81.41 58.59 83 57 83"/><polygon class="cls-3" points="56 79 56 84 61 84 56 79 56 79"/><circle class="cls-5" cx="77" cy="36" r="2"/><g class="cls-2"><path class="cls-3" d="M86,10V68H38V10H86m2-2H36V70H88V8Z"/></g><polygon class="cls-4" points="57 83 57 81.41 58.59 83 57 83"/><polygon class="cls-3" points="56 79 56 84 61 84 56 79 56 79"/><path class="cls-3" d="M46,38V84H10V38H46m2-2H8V86H48V36Z"/><path class="cls-3" d="M40,44v4H16V44H40m2-2H14v8H42V42Z"/><path class="cls-5" d="M40,76v4H38V76h2m2-2H36v8h6V74Z"/><rect class="cls-3" x="14" y="56" width="6" height="2"/><rect class="cls-3" x="25" y="56" width="6" height="2"/><rect class="cls-3" x="36" y="56" width="6" height="2"/><rect class="cls-3" x="14" y="62" width="6" height="2"/><rect class="cls-3" x="25" y="62" width="6" height="2"/><rect class="cls-3" x="36" y="62" width="6" height="2"/><rect class="cls-3" x="14" y="68" width="6" height="2"/><rect class="cls-3" x="25" y="68" width="6" height="2"/><rect class="cls-3" x="14" y="74" width="6" height="2"/><rect class="cls-3" x="25" y="74" width="6" height="2"/><rect class="cls-3" x="14" y="80" width="6" height="2"/><rect class="cls-3" x="25" y="80" width="6" height="2"/><rect class="cls-3" x="36" y="68" width="6" height="2"/><path class="cls-3" d="M77,12.83,83.17,19H77V12.83M75,8V21H88L75,8Z"/><rect class="cls-3" x="47" y="48" width="25" height="2"/><rect class="cls-3" x="66" y="54" width="16" height="2"/><rect class="cls-3" x="47" y="42" width="35" height="2"/><rect class="cls-3" x="47" y="54" width="17" height="2"/><polygon class="cls-4" points="57 83 57 81.41 58.59 83 57 83"/><polygon class="cls-3" points="56 79 56 84 61 84 56 79 56 79"/><circle class="cls-5" cx="77" cy="36" r="2"/><path class="cls-3" d="M77,58l-5,5L56,79l5,5L77,68l5-5ZM61,81.17,58.83,79,72,65.83,74.17,68ZM75.59,66.59l-2.18-2.18L77,60.83,79.17,63Z"/><path class="cls-3" d="M50,25h2a10,10,0,0,1,9-8.95V14A12,12,0,0,0,50,25ZM62,36a10,10,0,0,1-10-9H50a12,12,0,0,0,19.71,8.16l-1.42-1.42A10,10,0,0,1,62,36Z"/><path class="cls-5" d="M70.49,17.52a12.5,12.5,0,0,0-1.58-1.33l-.39-.26c-.26-.17-.52-.33-.79-.48a11.76,11.76,0,0,0-1.44-.66A12,12,0,0,0,63,14v2a9.83,9.83,0,0,1,2,.4l.47.16h0a9.86,9.86,0,0,1,1.32.6,10.11,10.11,0,0,1,4.1,4.17,7.76,7.76,0,0,1,.47,1.06,5.89,5.89,0,0,1,.21.59,9.63,9.63,0,0,1,.25,1,10.23,10.23,0,0,1,.2,2,8.83,8.83,0,0,1,0,.89c0,.21,0,.42-.08.63v0l-.06.34c0,.17-.07.34-.11.51l0,.11a1.38,1.38,0,0,1-.08.27,4.75,4.75,0,0,1-.2.64,7.47,7.47,0,0,1-.39.92c-.1.21-.2.41-.32.61a6,6,0,0,1-.45.71,7.9,7.9,0,0,1-.5.68l1.42,1.42q.33-.39.63-.81l.33-.48c.08-.13.15-.26.23-.38s.17-.3.25-.46a10.53,10.53,0,0,0,.81-1.92,3.38,3.38,0,0,0,.11-.34c.08-.25.14-.51.2-.77s.06-.28.08-.43A9.81,9.81,0,0,0,74,26.62c0-.21,0-.41,0-.62A12,12,0,0,0,70.49,17.52Z"/></g></svg>