<svg xmlns="http://www.w3.org/2000/svg" viewBox="0 0 96 96"><defs><style>.cls-1{fill:#002e47;}.cls-2{fill:#f14b3e;}</style></defs><g id="Your_Icons"><path class="cls-1" d="M76,72l-1.79,1.79-6.5-6.5-1.42,1.42,6.5,6.5L71,77,83,89l5-5Zm-2.17,5L76,74.83,85.17,84,83,86.17Z"/><path class="cls-2" d="M43.06,8.91a35,35,0,1,0,35,35A35,35,0,0,0,43.06,8.91Zm0,68a33,33,0,1,1,33-33A33,33,0,0,1,43.06,76.91Z"/><path class="cls-1" d="M43,13A31,31,0,1,0,74,44,31,31,0,0,0,43,13ZM32.34,59H53.66C51.22,67.12,47,72,43,72S34.78,67.12,32.34,59Zm-.55-2a56.37,56.37,0,0,1-1.55-13.5A57,57,0,0,1,31.56,31H54.44a57,57,0,0,1,1.32,12.5A56.37,56.37,0,0,1,54.21,57ZM43,15c4.18,0,8.56,5.28,11,14H32.05C34.44,20.28,38.82,15,43,15ZM56.46,31H68.91a28.89,28.89,0,0,1,0,26H56.23a58.08,58.08,0,0,0,1.53-13.5A59.14,59.14,0,0,0,56.46,31Zm11.35-2H56c-1.55-5.91-4-10.63-7-13.37A29,29,0,0,1,67.81,29ZM37,15.63c-3,2.74-5.45,7.46-7,13.37H18.19A29,29,0,0,1,37,15.63ZM17.09,31H29.54a59.14,59.14,0,0,0-1.3,12.5A58.08,58.08,0,0,0,29.77,57H17.09a28.89,28.89,0,0,1,0-26Zm1.1,28h12.1c1.86,6.49,4.85,11.44,8.41,13.68A29.06,29.06,0,0,1,18.19,59ZM47.3,72.68c3.56-2.24,6.55-7.19,8.41-13.68h12.1A29.06,29.06,0,0,1,47.3,72.68Z"/><path class="cls-1" d="M21,42.72c-.49,0-1-.32-1-.78a1,1,0,0,1,1.08-1,1.83,1.83,0,0,1,1.22.48l.69.63,1-1.74-.43-.41A3.68,3.68,0,0,0,21.08,39,3,3,0,0,0,18,41.94c0,1.46,1,2.46,2.68,2.72l.33.05c1.22.16,1.65.45,1.65,1.11A1.13,1.13,0,0,1,21.46,47a2.32,2.32,0,0,1-1.75-.78l-.58-.91L17.86,47l.31.46A4.31,4.31,0,0,0,21.48,49a3.17,3.17,0,0,0,3.17-3.11C24.65,44.84,24.17,43.05,21,42.72Z"/><polygon class="cls-1" points="46.24 40.97 46.24 38.99 39.87 38.99 39.87 48.99 46.13 48.99 46.13 46.98 41.88 46.98 41.88 45.09 45.21 45.09 45.21 43.09 41.88 43.09 41.88 40.97 46.24 40.97"/><path class="cls-1" d="M64.64,39a5,5,0,1,0,4.81,5A4.91,4.91,0,0,0,64.64,39Zm0,8a3,3,0,1,1,2.85-3A3,3,0,0,1,64.64,47Z"/></g></svg>