<svg xmlns="http://www.w3.org/2000/svg" xmlns:xlink="http://www.w3.org/1999/xlink" viewBox="0 0 96 96"><defs><style>.cls-1{fill:none;}.cls-2{fill:#002e47;}.cls-3{clip-path:url(#clip-path);}.cls-4{fill:#f14b3e;}</style><clipPath id="clip-path"><rect class="cls-1" x="14" y="58" width="18" height="22"/></clipPath></defs><g id="Your_Icons"><path class="cls-2" d="M86,66V86H55V80.17l-.59-.58L51.83,77l2.58-2.59.59-.58V66H86m2-2H53v9l-4,4,4,4v7H88V64Z"/><g class="cls-3"><path class="cls-2" d="M42,80H40A25,25,0,0,1,15,55h2A23,23,0,0,0,40,78h2Z"/></g><path class="cls-2" d="M72,39H69V33A25,25,0,0,0,44,8H40A25,25,0,0,0,15,33v6H12a4,4,0,0,0-4,4V55a4,4,0,0,0,4,4H18a4,4,0,0,0,4-4V43a4,4,0,0,0-3.63-4L31,26.41l10,10,5-5,7,7,6-6L65.63,39A4,4,0,0,0,62,43V55a4,4,0,0,0,4,4H72a4,4,0,0,0,4-4V43A4,4,0,0,0,72,39ZM10,55V43a2,2,0,0,1,2-2h3V57H12A2,2,0,0,1,10,55ZM20,43V55a2,2,0,0,1-2,2H17V41h1A2,2,0,0,1,20,43Zm33-7.45-7-7-5,5-10-10-14,14V33A23,23,0,0,1,40,10h4A23,23,0,0,1,67,33v4.59l-8-8ZM64,55V43a2,2,0,0,1,2-2h1V57H66A2,2,0,0,1,64,55Zm10,0a2,2,0,0,1-2,2H69V41h3a2,2,0,0,1,2,2Z"/><path class="cls-4" d="M43,75v4H33V75H43m2-2H31v8H45V73Z"/><rect class="cls-2" x="59" y="69" width="23" height="2"/><rect class="cls-2" x="59" y="75" width="20" height="2"/><rect class="cls-2" x="59" y="81" width="16" height="2"/><circle class="cls-4" cx="80" cy="82" r="2"/></g></svg>