<svg xmlns="http://www.w3.org/2000/svg" width="13.744" height="15.708" viewBox="0 0 13.744 15.708">
  <path id="trash-can-solid" d="M4.148.543A.978.978,0,0,1,5.025,0H8.719A.978.978,0,0,1,9.6.543l.221.439h2.945a.982.982,0,0,1,0,1.963H.982a.982.982,0,0,1,0-1.963H3.927ZM.982,3.927H12.762v9.817A1.965,1.965,0,0,1,10.8,15.708H2.945A1.965,1.965,0,0,1,.982,13.744ZM3.927,5.89a.492.492,0,0,0-.491.491v6.872a.491.491,0,0,0,.982,0V6.381A.492.492,0,0,0,3.927,5.89Zm2.945,0a.492.492,0,0,0-.491.491v6.872a.491.491,0,0,0,.982,0V6.381A.492.492,0,0,0,6.872,5.89Zm2.945,0a.492.492,0,0,0-.491.491v6.872a.491.491,0,0,0,.982,0V6.381A.492.492,0,0,0,9.817,5.89Z" fill="#797979"/>
</svg>
