<svg xmlns="http://www.w3.org/2000/svg" xmlns:xlink="http://www.w3.org/1999/xlink" viewBox="0 0 96 96"><defs><style>.cls-1{fill:none;}.cls-2{fill:#002e47;}.cls-3{clip-path:url(#clip-path);}.cls-4{fill:#f14b3e;}</style><clipPath id="clip-path"><path class="cls-1" d="M61,74v8h7v6H36V82h7V74H16V38.7l3.1,1.79,1.69-2.94a11.67,11.67,0,0,0,6.42,0l1.69,2.94,5.2-3-1.69-2.93A12.09,12.09,0,0,0,35.61,29H39V26H88V74Z"/></clipPath></defs><g id="Your_Icons"><path class="cls-2" d="M35.62,23a12,12,0,0,0-3.21-5.57l1.69-2.92-5.2-3-1.69,2.93a11.93,11.93,0,0,0-6.42,0L19.1,11.51l-5.2,3,1.69,2.92A12,12,0,0,0,12.38,23H9v6h3.38a12,12,0,0,0,3.21,5.57L13.9,37.49l5.2,3,1.69-2.93a11.93,11.93,0,0,0,6.42,0l1.69,2.93,5.2-3-1.69-2.92A12,12,0,0,0,35.62,29H39V23ZM37,27H34a9.48,9.48,0,0,1-.42,2,9.8,9.8,0,0,1-2.17,3.75,9,9,0,0,1-1.52,1.36l0,0,1,1.69.52.91-1.74,1-.52-.9-1-1.7,0,0a9.87,9.87,0,0,1-8.2,0l0,0-1,1.7-.52.9-1.74-1,.52-.91,1-1.69,0,0a9,9,0,0,1-1.52-1.36A9.8,9.8,0,0,1,14.47,29a9.48,9.48,0,0,1-.42-2H11V25h3.05a9.48,9.48,0,0,1,.42-2,9.8,9.8,0,0,1,2.17-3.75,9,9,0,0,1,1.52-1.36l0-.05-1-1.69-.52-.91,1.74-1,.52.9,1,1.7,0,.05a9.87,9.87,0,0,1,8.2,0l0-.05,1-1.7.52-.9,1.74,1-.52.91-1,1.69,0,.05a9,9,0,0,1,1.52,1.36A9.8,9.8,0,0,1,33.53,23,9.48,9.48,0,0,1,34,25h3Z"/><path class="cls-2" d="M24,20a6,6,0,1,0,6,6A6,6,0,0,0,24,20Zm0,10a4,4,0,1,1,4-4A4,4,0,0,1,24,30Z"/><g class="cls-3"><path class="cls-2" d="M88,74V26H16V74H43v8H36v6H68V82H61V74ZM18,72V28H86V72H18ZM66,84v2H38V84H66Zm-7-2H45V74H59Z"/><path class="cls-2" d="M80,44V65H52V44H80m2-2H50V67H82V42Z"/><path class="cls-2" d="M60,51,50,61v6H76ZM52,65V61.83l8-8,9.5,9.5L71.17,65Z"/><path class="cls-2" d="M82,67V64l-8-8-4.5,4.5-1.41,1.42,1.41,1.41,1.42-1.41L74,58.83l6,6V65"/><circle class="cls-4" cx="72" cy="49" r="2"/><rect class="cls-2" x="74" y="32" width="8" height="2"/><rect class="cls-2" x="59" y="32" width="11" height="2"/><rect class="cls-2" x="48" y="32" width="7" height="2"/><path class="cls-2" d="M44,44v4H24V44H44m2-2H22v8H46V42Z"/><rect class="cls-2" x="22" y="54" width="24" height="2"/><rect class="cls-2" x="22" y="58" width="17" height="2"/><polygon class="cls-4" points="32 64 22 64 22 67 32 67 32 64 32 64"/></g></g></svg>