<svg xmlns="http://www.w3.org/2000/svg" xmlns:xlink="http://www.w3.org/1999/xlink" width="45.714" height="40" viewBox="0 0 45.714 40">
  <defs>
    <clipPath id="clip-path">
      <path id="Path_146" data-name="Path 146" d="M24,44V65.714H44.571V60.571H43.143a2,2,0,0,1,0-4h1.429V50.286H38.857V44Z" transform="translate(-24 -44)" fill="none"/>
    </clipPath>
    <clipPath id="clip-path-2">
      <path id="Path_151" data-name="Path 151" d="M17.143,39.714H8V18H28.571V32.857H17.143Z" transform="translate(-8 -18)" fill="none"/>
    </clipPath>
  </defs>
  <g id="Your_Icons" data-name="Your Icons" transform="translate(0 0)">
    <g id="Group_186" data-name="Group 186" transform="translate(9.143 14.857)" clip-path="url(#clip-path)">
      <path id="Path_145" data-name="Path 145" d="M43.429,45.143V64.571H25.143V45.143H43.429M44.571,44H24V65.714H44.571Z" transform="translate(-24 -44)" fill="#002e47"/>
    </g>
    <path id="Path_147" data-name="Path 147" d="M62.857,75.294h6a4.571,4.571,0,0,0,4.571-4.571V67.294a4.531,4.531,0,0,0-1.143-3,10.857,10.857,0,0,0-1.657-1.32l-5.257-4.189a1.954,1.954,0,0,0-1.469-.417,2.006,2.006,0,0,0-1.331.737,2.034,2.034,0,0,0-.417,1.474,1.989,1.989,0,0,0,.743,1.337l1,.806H56a2,2,0,0,0,0,4h3.914a1.874,1.874,0,0,0-.2.857,1.989,1.989,0,0,0,.949,1.714,1.954,1.954,0,0,0-.377,1.143,1.989,1.989,0,0,0,.949,1.714,1.954,1.954,0,0,0-.377,1.143,2,2,0,0,0,2,2Zm.286-1.143h-.286a.857.857,0,1,1,0-1.714h.857V71.294H62.286a.857.857,0,1,1,0-1.714h1.429V68.437h-2a.857.857,0,1,1,0-1.714h2V65.58H56a.857.857,0,0,1,0-1.714H67.171l-1.44-1.143L63.6,61.009a.846.846,0,0,1-.32-.571.817.817,0,0,1,.183-.629.846.846,0,0,1,1.2-.137l3.823,3.051c.463.371.954.726,1.394,1.143a11.535,11.535,0,0,1,1.76,1.486,3.349,3.349,0,0,1,.646,1.943v3.429a3.429,3.429,0,0,1-3.429,3.429Z" transform="translate(-27.714 -35.294)" fill="#002e47"/>
    <g id="Group_187" data-name="Group 187" transform="translate(0)" clip-path="url(#clip-path-2)">
      <path id="Path_148" data-name="Path 148" d="M24.749,29.463l.7-1.211L23.286,27l-.7,1.211a4.983,4.983,0,0,0-2.674,0L19.206,27,17.04,28.24l.7,1.211a4.96,4.96,0,0,0-1.337,2.286H15v2.48h1.406A4.96,4.96,0,0,0,17.743,36.5l-.7,1.211L19.206,39l.7-1.211a4.983,4.983,0,0,0,2.674,0l.7,1.211,2.166-1.24-.7-1.211a4.96,4.96,0,0,0,1.337-2.286h1.406v-2.5H26.086A4.96,4.96,0,0,0,24.749,29.463Zm1.909,3.131v.823H25.389a3.623,3.623,0,0,1-.177.829,4.091,4.091,0,0,1-.9,1.554,3.708,3.708,0,0,1-.634.571h0l.406.7.217.377-.726.411-.217-.371-.406-.7h0a4.149,4.149,0,0,1-3.429,0h0l-.406.7-.217.371-.726-.411.217-.377.406-.7h0a3.674,3.674,0,0,1-.629-.571,4.091,4.091,0,0,1-.88-1.554,3.623,3.623,0,0,1-.177-.829H15.834v-.823H17.1a3.623,3.623,0,0,1,.183-.829,4.091,4.091,0,0,1,.9-1.554,3.674,3.674,0,0,1,.629-.571h0l-.406-.7-.217-.377.709-.423.217.371.406.7h0a4.149,4.149,0,0,1,3.429,0h0l.406-.7.211-.371.726.411-.217.377-.406.7h0a3.709,3.709,0,0,1,.634.571,4.091,4.091,0,0,1,.9,1.554,3.623,3.623,0,0,1,.177.829h1.269Z" transform="translate(-11 -21.857)" fill="#002e47"/>
      <path id="Path_149" data-name="Path 149" d="M24.083,33.17a2.48,2.48,0,1,0,2.5,2.48A2.48,2.48,0,0,0,24.083,33.17Zm0,4.137a1.657,1.657,0,1,1,1.175-.483,1.657,1.657,0,0,1-1.175.483Z" transform="translate(-13.837 -24.501)" fill="#002e47"/>
      <path id="Path_150" data-name="Path 150" d="M24.571,18H8V39.714H28.571V18Zm2.857,1.143v1.714H25.714V19.143Zm0,14.857v4.571H9.143V19.143H24.571V22h2.857Z" transform="translate(-8 -18)" fill="#002e47"/>
    </g>
    <path id="Path_152" data-name="Path 152" d="M41.286,69.257A6.286,6.286,0,0,1,31,65h1.143a5.143,5.143,0,0,0,5.143,4.571,5.091,5.091,0,0,0,3.206-1.143Z" transform="translate(-17.857 -38.143)" fill="#f14b3e"/>
    <path id="Path_153" data-name="Path 153" d="M36.74,53.05v1.143A5.143,5.143,0,0,0,32.2,58.736H31.06A6.286,6.286,0,0,1,36.74,53.05Z" transform="translate(-17.883 -33.021)" fill="#002e47"/>
    <path id="Path_154" data-name="Path 154" d="M48.714,59.311a6.286,6.286,0,0,1-1.457,4l-.829-.794a5.091,5.091,0,0,0,1.143-3.206A5.143,5.143,0,0,0,43,54.2V53.06A6.286,6.286,0,0,1,48.714,59.311Z" transform="translate(-23 -33.026)" fill="#002e47"/>
    <path id="Path_155" data-name="Path 155" d="M67.714,18H50V39.143H71.714V18Zm2.857,1.143v1.714H68.857V19.143Zm0,18.857H51.143V19.143H67.714V22h2.857Z" transform="translate(-26 -18)" fill="#002e47"/>
    <rect id="Rectangle_130" data-name="Rectangle 130" width="13.714" height="1.143" transform="translate(28 7.429)" fill="#f14b3e"/>
    <path id="Path_156" data-name="Path 156" d="M69.857,28.143V38.429H56.143V28.143H69.857M71,27H55V39.571H71Z" transform="translate(-28.143 -21.857)" fill="#002e47"/>
    <path id="Path_157" data-name="Path 157" d="M62.276,40.673,59.59,37.981l2.686-2.691.811.811L61.2,37.981l1.886,1.88Z" transform="translate(-30.11 -25.41)" fill="#002e47"/>
    <path id="Path_158" data-name="Path 158" d="M73.1,40.673l-.811-.811,1.886-1.88L72.29,36.1l.811-.811,2.686,2.691Z" transform="translate(-35.553 -25.41)" fill="#002e47"/>
    <rect id="Rectangle_131" data-name="Rectangle 131" width="5.829" height="1.143" transform="translate(33.722 15.319) rotate(-78.68)" fill="#002e47"/>
  </g>
</svg>
