<svg xmlns="http://www.w3.org/2000/svg" width="18" height="18" fill="none" viewBox="0 0 18 18">
  <path fill="#DC323D" d="M16.036 16.311c-2.758 2.252-11.37 2.252-14.072 0C-.794 14.06-.512 4.433 1.964 1.9 4.441-.633 13.56-.633 16.036 1.9c2.476 2.533 2.758 12.16 0 14.411z"/>
  <path fill="#FF4A55" d="M8.905 12.046c-2.437 1.915-5.152 2.9-7.7 2.954-1.883-3.173-1.496-10.885.72-13.128C3.92-.152 10.18-.535 13.78.723c.886 3.61-.941 8.205-4.875 11.323z"/>
  <path fill="#fff" d="M9.385 14H5V4h3.911c.711 0 1.245.059 1.778.235.474.177.889.353 1.126.647.474.53.652 1.118.652 1.765 0 .765-.237 1.353-.77 1.765-.178.117-.297.235-.356.235-.06.059-.178.118-.356.177.652.117 1.126.411 1.482.823.355.412.533.941.533 1.588 0 .706-.237 1.295-.711 1.824-.534.647-1.54.941-2.904.941zM7.252 8.059h1.066c.652 0 1.067-.059 1.363-.177.297-.117.475-.411.475-.882 0-.47-.119-.765-.415-.882-.297-.118-.77-.236-1.423-.236H7.252V8.06zm0 4.059h1.54c.652 0 1.126-.06 1.423-.236.296-.176.474-.47.474-.94 0-.472-.178-.766-.534-.942-.355-.177-.888-.235-1.659-.235H7.193v2.353h.059z"/>
</svg>
