<svg xmlns="http://www.w3.org/2000/svg" xmlns:xlink="http://www.w3.org/1999/xlink" viewBox="0 0 96 96"><defs><style>.cls-1{fill:none;}.cls-2,.cls-4{fill:#002e47;}.cls-3{fill:#f14b3e;}.cls-4{stroke:#002e47;stroke-miterlimit:10;stroke-width:2px;}.cls-5{clip-path:url(#clip-path);}.cls-6{clip-path:url(#clip-path-2);}</style><clipPath id="clip-path"><path class="cls-1" d="M64,40l-6,9,6,9h2v-.5a3.5,3.5,0,0,1,7,0V58H88V40Z"/></clipPath><clipPath id="clip-path-2"><path class="cls-1" d="M77,40V21L64,8H19v6H32l6,9-6,9H19V55H32l6,9-6,9H19v5H62.37l-3.26-4.1a3.42,3.42,0,0,1-.73-2.57A3.51,3.51,0,0,1,59.67,69a3.56,3.56,0,0,1,2.58-.73,3.48,3.48,0,0,1,2.34,1.3L66,71.32V58H64l-6-9,6-9ZM73,58v6.35A3.28,3.28,0,0,1,74.5,64,3.43,3.43,0,0,1,77,65.07V58Z"/></clipPath></defs><g id="Your_Icons"><polygon class="cls-2" points="18 18 17.97 20.03 19 20 19 28 21.01 28 21.01 18 18 18"/><path class="cls-2" d="M22.52,63.47a2.87,2.87,0,0,0,.55-1.69A2.76,2.76,0,0,0,20.34,59a2.71,2.71,0,0,0-2.67,2.3l-.15.88h1.89l.13-.6a.83.83,0,0,1,.8-.67.88.88,0,0,1,.19,1.72l-.58.14v1.71l.63.11a1.26,1.26,0,1,1-1.5,1.51l-.14-.59H17l.17.9a3.26,3.26,0,0,0,6.45-.58A3.14,3.14,0,0,0,22.52,63.47Z"/><path class="cls-2" d="M73,54h6.58v-2H76.06l2.74-2.59.07-.08a3.36,3.36,0,0,0,.71-2.09,3.24,3.24,0,0,0-6.47-.41l-.11.86h1.91l.1-.65a1.37,1.37,0,0,1,1.33-1.18,1.35,1.35,0,0,1,1.33,1.38,1.46,1.46,0,0,1-.27.82L73,52.27Z"/><rect class="cls-2" x="42" y="22" width="20" height="2"/><rect class="cls-2" x="42" y="18" width="13" height="2"/><rect class="cls-2" x="42" y="26" width="15" height="2"/><rect class="cls-3" x="34" y="48" width="20" height="2"/><rect class="cls-2" x="42" y="44" width="12" height="2"/><line class="cls-4" x1="38" y1="53" x2="54" y2="53"/><rect class="cls-2" x="42" y="61" width="20" height="2"/><rect class="cls-2" x="42" y="65" width="11" height="2"/><path class="cls-3" d="M65,47a2,2,0,1,0,2,2,2,2,0,0,0-2-2Z"/><path class="cls-2" d="M30.93,57l4.67,7-4.67,7H10V57H30.93M32,55H8V73H32l6-9-6-9Z"/><path class="cls-2" d="M31,62a2,2,0,1,0,2,2,2,2,0,0,0-2-2Z"/><path class="cls-2" d="M30.93,16l4.67,7-4.67,7H10V16H30.93M32,14H8V32H32l6-9-6-9Z"/><path class="cls-2" d="M31,21a2,2,0,1,0,2,2,2,2,0,0,0-2-2Z"/><g class="cls-5"><path class="cls-2" d="M86,42V56H65.07L60.4,49l4.67-7H86m2-2H64l-6,9,6,9H88V40Z"/></g><path class="cls-2" d="M84.5,66a3.42,3.42,0,0,0-2,.66,3.48,3.48,0,0,0-3-1.66,3.42,3.42,0,0,0-2,.66,3.48,3.48,0,0,0-3-1.66,3.28,3.28,0,0,0-1.5.35V57.5a3.5,3.5,0,0,0-7,0V71.32l-1.41-1.77a3.48,3.48,0,0,0-2.34-1.3,3.56,3.56,0,0,0-2.58.73,3.51,3.51,0,0,0-1.29,2.35,3.42,3.42,0,0,0,.73,2.57l7.34,9.23A19,19,0,0,0,68.76,86,7.93,7.93,0,0,0,74,88h6a8,8,0,0,0,8-8V69.5A3.5,3.5,0,0,0,84.5,66ZM86,71v9a6,6,0,0,1-6,6H74a5.86,5.86,0,0,1-3.45-1.13c-1.11-.82-1.69-2.08-2.6-3.08-.69-.77-1.31-1.63-2-2.44l-5.32-6.69a1.48,1.48,0,0,1,.24-2.1,1.43,1.43,0,0,1,1.1-.32,1.48,1.48,0,0,1,1,.56l3,3.73,2,2.52V57.5a1.5,1.5,0,0,1,3,0V71h2V67.5a1.5,1.5,0,0,1,3,0V71h2V68.5a1.5,1.5,0,0,1,3,0V71h2V69.5a1.5,1.5,0,0,1,3,0V71Z"/><g class="cls-6"><path class="cls-2" d="M75,10V76H21V10H75m2-2H19V78H77V8Z"/></g><path class="cls-3" d="M66,12.83,72.17,19H66V12.83M64,8V21H77L64,8Z"/></g></svg>