<svg xmlns="http://www.w3.org/2000/svg" viewBox="0 0 96 96"><defs><style>.cls-1{fill:#f14b3e;}.cls-2{fill:#002e47;}</style></defs><g id="Your_Icons"><rect class="cls-1" x="10" y="22" width="76" height="2"/><rect class="cls-2" x="80" y="19" width="2" height="2"/><rect class="cls-2" x="76" y="19" width="2" height="2"/><rect class="cls-2" x="72" y="19" width="2" height="2"/><rect class="cls-2" x="47" y="26" width="2" height="50"/><path class="cls-2" d="M86,18V78H10V18H86m2-2H8V80H88V16Z"/><path class="cls-2" d="M28.76,28h-.84L23.71,38h2.21l.79-2H30l.83,2H33Zm-1.24,6.08.82-1.92.81,1.92Z"/><path class="cls-2" d="M70,32.75A3,3,0,0,0,70.54,31a3.05,3.05,0,0,0-3-3H64V38h4.12a3,3,0,0,0,2.94-3A2.93,2.93,0,0,0,70,32.75Zm-2.51-.69H66V30H67.5a1,1,0,1,1,0,2.05Zm-1.49,2h2.08a1,1,0,0,1,0,1.92H66Z"/><rect class="cls-2" x="53" y="44" width="23" height="2"/><rect class="cls-2" x="53" y="48" width="29" height="2"/><rect class="cls-2" x="53" y="54" width="26" height="2"/><rect class="cls-2" x="53" y="60" width="26" height="2"/><rect class="cls-2" x="53" y="64" width="17" height="2"/><rect class="cls-2" x="53" y="70" width="26" height="2"/><rect class="cls-2" x="14" y="44" width="29" height="2"/><rect class="cls-2" x="14" y="50" width="25" height="2"/><rect class="cls-2" x="14" y="56" width="19" height="2"/><rect class="cls-2" x="14" y="60" width="29" height="2"/><rect class="cls-2" x="14" y="66" width="17" height="2"/><rect class="cls-2" x="14" y="70" width="26" height="2"/></g></svg>