<svg id="Layer_1" data-name="Layer 1" xmlns="http://www.w3.org/2000/svg" width="360.3052" height="106.284" viewBox="0 0 360.3052 106.284"><defs><style>.cls-1{fill:#2288ef;fill-rule:evenodd;}.cls-2{fill:#12263a;}</style></defs><path class="cls-1" d="M36.6319,22.4149H73.9407A12.5633,12.5633,0,0,1,86.4673,34.9415V72.25A12.5626,12.5626,0,0,1,73.9407,84.7766h-28.58V61.7558A15.1116,15.1116,0,0,1,63.728,46.9987l.002-.01a15.1334,15.1334,0,0,1,3.1042,1.0536,2.7751,2.7751,0,0,0,2.3239-5.04,20.6646,20.6646,0,0,0-4.2344-1.4255v-.0108a20.6879,20.6879,0,0,0-25.1249,20.19V84.7766H36.6319A12.5631,12.5631,0,0,1,24.1054,72.25V34.9415A12.5638,12.5638,0,0,1,36.6319,22.4149ZM50.9,64.32a2.7757,2.7757,0,0,1,4.0862-3.7579,7.4571,7.4571,0,0,0,10.97-.0014A2.7761,2.7761,0,0,1,70.0422,64.32,13.0215,13.0215,0,0,1,50.9,64.32Z"/><path class="cls-2" d="M92.5022,72.2506V56.39a6.3879,6.3879,0,0,1,.9167-3.3778,6.7253,6.7253,0,0,1,2.4775-2.397A6.9543,6.9543,0,0,1,99.387,49.73h8.3968v4.5042h-7.721a2.053,2.053,0,0,0-1.5284.6435,2.1721,2.1721,0,0,0-.6271,1.5766v3.2491H106.69v4.4719H97.9073v8.0754Zm25.6411.386a9.2482,9.2482,0,0,1-4.5683-1.1259,8.7052,8.7052,0,0,1-3.2009-11.92,8.5969,8.5969,0,0,1,3.2009-3.0886,9.1441,9.1441,0,0,1,4.5683-1.1424,9.0525,9.0525,0,0,1,4.5524,1.1424,8.63,8.63,0,0,1,3.1851,3.0886,8.5754,8.5754,0,0,1-3.2009,11.92,9.1839,9.1839,0,0,1-4.5366,1.1259Zm0-4.3432a3.6247,3.6247,0,0,0,2.0591-.5788,3.9331,3.9331,0,0,0,1.3515-1.5444,4.8294,4.8294,0,0,0,.4825-2.1877,4.7549,4.7549,0,0,0-.4825-2.1555,3.9328,3.9328,0,0,0-1.3515-1.5443,3.6242,3.6242,0,0,0-2.0591-.5794,3.7044,3.7044,0,0,0-2.075.5794,3.8923,3.8923,0,0,0-1.3674,1.5443,4.7561,4.7561,0,0,0-.4824,2.1555,4.8306,4.8306,0,0,0,.4824,2.1877,3.8926,3.8926,0,0,0,1.3674,1.5444,3.7048,3.7048,0,0,0,2.075.5788Zm11.7428,3.9572V60.6041a4.4565,4.4565,0,0,1,4.858-4.8257h4.794V59.832H135.967a1.0814,1.0814,0,0,0-.7721.3055,1.0384,1.0384,0,0,0-.3221.7887V72.2506Zm20.59.386a9.5511,9.5511,0,0,1-4.6647-1.0936,7.5982,7.5982,0,0,1-3.0886-3.1209,9.8092,9.8092,0,0,1-1.0942-4.7293V48.7649h4.9867v8.7829h.097a4.8262,4.8262,0,0,1,1.2064-1.1741,5.54,5.54,0,0,1,1.6084-.7563A6.72,6.72,0,0,1,151.41,55.36a7.852,7.852,0,0,1,4.1181,1.0619A7.537,7.537,0,0,1,158.31,59.35a9.0288,9.0288,0,0,1,1.0137,4.3756,10.1643,10.1643,0,0,1-.6111,3.5711,8.315,8.315,0,0,1-1.7536,2.8471,7.614,7.614,0,0,1-2.7671,1.85,10.0284,10.0284,0,0,1-3.7157.6434Zm0-4.3109a3.4855,3.4855,0,0,0,1.9945-.563,3.7624,3.7624,0,0,0,1.3033-1.5443,5.0738,5.0738,0,0,0,.4666-2.2036,4.9684,4.9684,0,0,0-.4666-2.1878,3.7854,3.7854,0,0,0-1.3033-1.5284,3.4862,3.4862,0,0,0-1.9945-.563,3.5658,3.5658,0,0,0-2.0109.563,3.6312,3.6312,0,0,0-1.3028,1.5284,5.1107,5.1107,0,0,0-.45,2.1878,5.22,5.22,0,0,0,.45,2.2036,3.6115,3.6115,0,0,0,1.3028,1.5443,3.5651,3.5651,0,0,0,2.0109.563Zm11.6787,3.9249V60.6041a4.4567,4.4567,0,0,1,4.8581-4.8257h4.7939V59.832H168.236a1.0818,1.0818,0,0,0-.7721.3055,1.0383,1.0383,0,0,0-.322.7887V72.2506Zm20.1079.386a9.2468,9.2468,0,0,1-4.3914-.9813,7.06,7.06,0,0,1-2.8472-2.67,7.2328,7.2328,0,0,1-.9978-3.7479v-9.491h4.9868v9.3623a3.1254,3.1254,0,0,0,.4184,1.5925,3.1959,3.1959,0,0,0,1.1423,1.1582,3.1549,3.1549,0,0,0,1.6566.4343,3.0957,3.0957,0,0,0,1.6248-.4343,3.1953,3.1953,0,0,0,1.1418-1.1582,3.1264,3.1264,0,0,0,.4184-1.5925V55.7461h4.9867v9.491a7.4188,7.4188,0,0,1-.9649,3.7479,6.8952,6.8952,0,0,1-2.7831,2.67,9.1308,9.1308,0,0,1-4.3914.9813Zm11.8709-.386V48.7649h4.9867V61.9874h2.1878l3.7644-6.2413h5.5656l-4.44,6.8848a6.4453,6.4453,0,0,1,3.0082,2.4616,6.95,6.95,0,0,1,1.0777,3.8767v3.2814h-5.019V68.9692a3.0939,3.0939,0,0,0-.4343-1.6248A3.24,3.24,0,0,0,203.69,66.202a3.108,3.108,0,0,0-1.6089-.4178h-2.96v6.4664Zm27.99,0a11.0147,11.0147,0,0,1-4.9227-1.0455,7.9743,7.9743,0,0,1-3.2972-2.8958,7.8384,7.8384,0,0,1-1.1747-4.2945,9.0366,9.0366,0,0,1,1.1265-4.633,7.8512,7.8512,0,0,1,3.0081-2.9758A8.4288,8.4288,0,0,1,221.03,55.36a8.0887,8.0887,0,0,1,4.36,1.0942,6.9907,6.9907,0,0,1,2.6538,2.9758,9.8245,9.8245,0,0,1,.9008,4.2951q0,.4184-.0482.9813a8.4063,8.4063,0,0,1-.1122.8844h-10.81a2.996,2.996,0,0,0,.74,1.4157,3.2538,3.2538,0,0,0,1.3833.8526,5.9892,5.9892,0,0,0,1.8657.2733h5.0514v4.1182Zm-4.2792-9.78h6.2736a7.4093,7.4093,0,0,0-.1928-.9978,2.5055,2.5055,0,0,0-.4024-.8521,3.234,3.234,0,0,0-.6271-.6435,2.8439,2.8439,0,0,0-.82-.4343,3.4942,3.4942,0,0,0-2.3647.0964,2.7756,2.7756,0,0,0-.9654.6917,3.1217,3.1217,0,0,0-.5953.9972,6.2653,6.2653,0,0,0-.3056,1.1424Zm13.8659,9.78V60.6041a4.4567,4.4567,0,0,1,4.858-4.8257h4.794V59.832h-3.5711a1.0818,1.0818,0,0,0-.7721.3055,1.0383,1.0383,0,0,0-.322.7887V72.2506Zm17.9524,0a4.5976,4.5976,0,0,1-3.4265-1.2547,4.6441,4.6441,0,0,1-1.2387-3.41V51.7249h2.96V67.3925a2.3512,2.3512,0,0,0,.5953,1.6889,2.1735,2.1735,0,0,0,1.6566.6276h3.3142v2.5416Zm-7.4965-13.866V55.8431h11.4214v2.5415Zm22.1984,14.252a8.5523,8.5523,0,0,1-4.44-1.1423,8.4413,8.4413,0,0,1-3.0561-3.0881,9.0033,9.0033,0,0,1,0-8.7188,8.4381,8.4381,0,0,1,3.0561-3.0886,8.552,8.552,0,0,1,4.44-1.1418,8.6436,8.6436,0,0,1,4.4567,1.1418,8.2791,8.2791,0,0,1,3.0563,3.0886,9.1155,9.1155,0,0,1,0,8.7188,8.2822,8.2822,0,0,1-3.0563,3.0881,8.6439,8.6439,0,0,1-4.4567,1.1423Zm0-2.5415a5.3659,5.3659,0,0,0,2.96-.8045,5.5677,5.5677,0,0,0,1.9632-2.1713,7.0253,7.0253,0,0,0,0-6.145,5.5694,5.5694,0,0,0-1.9632-2.1719,5.821,5.821,0,0,0-5.9035,0,5.5216,5.5216,0,0,0-1.9785,2.1719,7.0191,7.0191,0,0,0,0,6.145,5.52,5.52,0,0,0,1.9785,2.1713,5.3845,5.3845,0,0,0,2.9435.8045Zm12.3222,2.1555V60.5078a4.29,4.29,0,0,1,4.6653-4.6647H284.73v2.5415h-2.8307a2.2058,2.2058,0,0,0-1.6572.6111,2.341,2.341,0,0,0-.5952,1.7048v11.55Zm13.2548,6.531V76.24h8.0431a2.4021,2.4021,0,0,0,1.85-.7081,2.6254,2.6254,0,0,0,.66-1.8657V69.1619H300.43a7.828,7.828,0,0,1-1.48,1.673,6.8442,6.8442,0,0,1-1.995,1.1741,7.0138,7.0138,0,0,1-2.5415.4343,7.6946,7.6946,0,0,1-4.0859-1.0777,7.4556,7.4556,0,0,1-2.7666-2.9917,10.062,10.062,0,0,1,0-8.7347,7.5246,7.5246,0,0,1,2.8794-3.0563,8.713,8.713,0,0,1,4.5524-1.1259,8.8041,8.8041,0,0,1,4.472,1.0936,7.5752,7.5752,0,0,1,2.9435,3.04,9.474,9.474,0,0,1,1.0454,4.5525v9.7154a4.5782,4.5782,0,0,1-4.922,4.9227Zm5.019-8.88a5.2172,5.2172,0,0,0,4.81-2.8795,6.4425,6.4425,0,0,0,.6916-3.0075,6.739,6.739,0,0,0-.6757-3.0569,5.135,5.135,0,0,0-4.8258-2.9276,5.1468,5.1468,0,0,0-2.8794.7886,5.2217,5.2217,0,0,0-1.8658,2.1554,6.9783,6.9783,0,0,0-.66,3.0722,6.553,6.553,0,0,0,.66,2.9441,5.2676,5.2676,0,0,0,1.8658,2.1231,5.1466,5.1466,0,0,0,2.8794.7881Zm21.4266,2.3488a10.8556,10.8556,0,0,1-4.7934-1.0137,7.7965,7.7965,0,0,1-3.2655-2.863,7.9,7.9,0,0,1-1.1742-4.3274,9.4892,9.4892,0,0,1,.9973-4.3914,7.75,7.75,0,0,1,2.7666-3.0722,7.5052,7.5052,0,0,1,4.1182-1.1259,7.6333,7.6333,0,0,1,4.23,1.0936,6.7467,6.7467,0,0,1,2.5257,2.9435,9.9218,9.9218,0,0,1,.8362,4.1346q0,.3537-.0159.74a3.8622,3.8622,0,0,1-.08.6753H310.3071a4.8127,4.8127,0,0,0,.9972,2.5579,5.2052,5.2052,0,0,0,2.14,1.5767,7.5663,7.5663,0,0,0,2.8794.5306h4.2786v2.5416Zm-6.1126-9.2977h9.3622a7.1521,7.1521,0,0,0-.1287-1.3028,5.2484,5.2484,0,0,0-.4507-1.3515,4.4149,4.4149,0,0,0-.8521-1.1906,3.9489,3.9489,0,0,0-1.3192-.8521,4.8685,4.8685,0,0,0-1.85-.322,4.3058,4.3058,0,0,0-1.9786.4343,4.6712,4.6712,0,0,0-1.4638,1.1582,5.2227,5.2227,0,0,0-.9332,1.6248,6.7865,6.7865,0,0,0-.386,1.8017Zm21.7161,9.2977a4.3109,4.3109,0,0,1-4.6652-4.6647V51.7249h2.96V67.3925a2.3516,2.3516,0,0,0,.5953,1.6889,2.1738,2.1738,0,0,0,1.6566.6276h3.3143v2.5416Zm-7.4964-13.866V55.8431h11.4213v2.5415Z"/></svg>