<svg xmlns="http://www.w3.org/2000/svg" xmlns:xlink="http://www.w3.org/1999/xlink" viewBox="0 0 96 96"><defs><style>.cls-1{fill:none;}.cls-2{clip-path:url(#clip-path);}.cls-3{fill:#f14b3e;}.cls-4{fill:#002e47;}</style><clipPath id="clip-path"><path class="cls-1" d="M80,12H8V72H70.81L67,62l13,5Z"/></clipPath></defs><g id="Your_Icons"><g class="cls-2"><rect class="cls-3" x="8" y="18" width="71" height="2"/><path class="cls-4" d="M78,14V70H10V14H78m2-2H8V72H80V12Z"/><path class="cls-4" d="M71,27v6H18V27H71m2-2H16V35H73V25Z"/><rect class="cls-4" x="20" y="29" width="4" height="2"/><path class="cls-4" d="M37,46v6H18V46H37m2-2H16V54H39V44Z"/><rect class="cls-4" x="20" y="48" width="4" height="2"/><path class="cls-4" d="M71,46v6H45V46H71m2-2H43V54H73V44Z"/><path class="cls-3" d="M71,60v4H59V60H71m2-2H57v8H73V58Z"/><rect class="cls-4" x="72" y="15" width="2" height="2"/><rect class="cls-4" x="68" y="15" width="2" height="2"/><rect class="cls-4" x="64" y="15" width="2" height="2"/><rect class="cls-4" x="16" y="40" width="37" height="2"/><rect class="cls-4" x="57" y="40" width="16" height="2"/></g><path class="cls-4" d="M70.46,65.46l12.2,4.64L78.19,72l-.73.31-.32.73-2,4.65L70.46,65.46M67,62l8,21,4-9.15L88,70,67,62Z"/><rect class="cls-4" x="81.5" y="71.14" width="2" height="12.73" transform="translate(-30.64 81.04) rotate(-45)"/></g></svg>