<svg xmlns="http://www.w3.org/2000/svg" width="120.723" height="27.115" viewBox="0 0 120.723 27.115">
  <g id="Byråguiden_logo" transform="translate(-6.765 -4.27)">
    <g id="Group_6" transform="translate(6.765 4.27)">
      <path id="Path_4" d="M30.909,28.837c-4.182,3.4-17.075,3.4-21.169,0-4.182-3.4-3.746-17.859,0-21.692s17.423-3.833,21.169,0S35.091,25.439,30.909,28.837Z" transform="translate(-6.765 -4.27)" fill="#dc323d"/>
      <path id="Path_5" d="M20.2,22.5A19.711,19.711,0,0,1,8.614,26.938C5.826,22.147,6.349,10.561,9.659,7.25,12.621,4.2,22.029,3.591,27.431,5.508,28.824,10.909,26.124,17.791,20.2,22.5Z" transform="translate(-6.771 -4.288)" fill="#ff4a55"/>
      <path id="Path_6" d="M22,26.254H15.38V11.27h5.837a8.82,8.82,0,0,1,2.7.348,3.783,3.783,0,0,1,1.655.958,3.748,3.748,0,0,1,.958,2.613A3.085,3.085,0,0,1,25.4,17.8c-.261.174-.436.348-.523.348a1.418,1.418,0,0,1-.523.261,4.12,4.12,0,0,1,2.265,1.22,3.487,3.487,0,0,1,.784,2.352,3.9,3.9,0,0,1-1.045,2.7c-.784,1.133-2.265,1.568-4.356,1.568Zm-3.136-8.886h1.568a6.427,6.427,0,0,0,2.091-.261,1.262,1.262,0,0,0,.7-1.307c0-.7-.174-1.133-.61-1.307a5.865,5.865,0,0,0-2.178-.348H18.865v3.223h0Zm0,6.1h2.352a4.937,4.937,0,0,0,2.178-.348,1.484,1.484,0,0,0,.7-1.394,1.4,1.4,0,0,0-.784-1.394,5.967,5.967,0,0,0-2.526-.348h-2v3.572h.087Z" transform="translate(-7.875 -5.172)" fill="#fff"/>
    </g>
    <text id="Byråguiden" transform="translate(38.488 23.685)" fill="#002e47" font-size="16" font-family="Helvetica-Bold, Helvetica" font-weight="700"><tspan x="0" y="0">Byråguiden</tspan></text>
  </g>
</svg>
