<svg xmlns="http://www.w3.org/2000/svg" viewBox="0 0 96 96"><defs><style>.cls-1{fill:#f14b3e;}.cls-2{fill:#002e47;}</style></defs><g id="Your_Icons"><rect class="cls-1" x="10" y="26" width="76" height="2"/><rect class="cls-2" x="80" y="23" width="2" height="2"/><rect class="cls-2" x="76" y="23" width="2" height="2"/><rect class="cls-2" x="72" y="23" width="2" height="2"/><path class="cls-2" d="M86,22V74H10V22H86m2-2H8V76H88V20Z"/><path class="cls-2" d="M41,50.55V43h2V41H17v2h2V69H50V53ZM29,67V64h2v3Zm10,0H33V62H27v5H21V43H39V67Zm9,0H41V52.62l7,1.91Z"/><rect class="cls-2" x="23" y="45" width="2" height="2"/><rect class="cls-2" x="27" y="45" width="2" height="2"/><rect class="cls-2" x="31" y="45" width="2" height="2"/><rect class="cls-2" x="35" y="45" width="2" height="2"/><rect class="cls-2" x="23" y="49" width="2" height="2"/><rect class="cls-2" x="27" y="49" width="2" height="2"/><rect class="cls-2" x="31" y="49" width="2" height="2"/><rect class="cls-2" x="35" y="49" width="2" height="2"/><rect class="cls-2" x="23" y="53" width="2" height="2"/><rect class="cls-2" x="27" y="53" width="2" height="2"/><rect class="cls-2" x="31" y="53" width="2" height="2"/><rect class="cls-2" x="35" y="53" width="2" height="2"/><rect class="cls-2" x="23" y="57" width="2" height="2"/><rect class="cls-2" x="27" y="57" width="2" height="2"/><rect class="cls-2" x="31" y="57" width="2" height="2"/><rect class="cls-2" x="35" y="57" width="2" height="2"/><path class="cls-2" d="M61,57.12a.73.73,0,0,0,0-.24l.24.12Z"/><path class="cls-2" d="M61,56.88l.24.12-.24.12a.73.73,0,0,0,0-.24Z"/><path class="cls-1" d="M75,61a4,4,0,0,0-3,1.38l-9.07-4.54A4,4,0,0,1,62,59.62l9.07,4.54A3.86,3.86,0,0,0,71,65a4,4,0,1,0,4-4Zm0,6a2,2,0,0,1-2-1.88A.49.49,0,0,1,73,65a2,2,0,0,1,.89-1.67A2,2,0,1,1,75,67Z"/><path class="cls-2" d="M61.23,57,61,56.88a.73.73,0,0,1,0,.24Z"/><path class="cls-2" d="M75,45a4,4,0,0,0-4,4,3.86,3.86,0,0,0,.09.84L62,54.38a4,4,0,1,0,.89,3.46,4,4,0,0,0,0-1.68L72,51.62A4,4,0,1,0,75,45ZM61,57.12a2,2,0,1,1,0-.24l.24.12ZM75,51a2,2,0,0,1-1.11-.33A2,2,0,0,1,73,49a.49.49,0,0,1,0-.12A2,2,0,1,1,75,51Z"/><rect class="cls-2" x="76" y="31" width="6" height="2"/><rect class="cls-2" x="56" y="31" width="8" height="2"/><rect class="cls-2" x="68" y="31" width="4" height="2"/><rect class="cls-2" x="46" y="31" width="6" height="2"/></g></svg>