<svg id="SvgjsSvg1708" width="360" height="360" xmlns="http://www.w3.org/2000/svg" version="1.1"
     xmlns:xlink="http://www.w3.org/1999/xlink"><defs id="SvgjsDefs1709"></defs><g id="SvgjsG1710"><svg xmlns="http://www.w3.org/2000/svg" xmlns:xlink="http://www.w3.org/1999/xlink" viewBox="0 0 1743.275 1472.193" width="360" height="360"><defs><linearGradient id="J" x1="599.189" x2="696.449" y1="1129.165" y2="1129.165" xlink:href="#g"></linearGradient><linearGradient id="b" x1="1311.068" x2="1311.068" y1="749.286" y2="157.677" gradientUnits="userSpaceOnUse"><stop offset=".465" stop-color="#ffffff" class="stopColorfff svgShape"></stop><stop offset=".829" stop-color="#dfebf4" class="stopColordfe4f4 svgShape"></stop></linearGradient><linearGradient id="a" x1="464.636" x2="834.022" y1="646.675" y2="646.675" gradientUnits="userSpaceOnUse"><stop offset="0" stop-color="#cfe2f1" class="stopColorcfd5f1 svgShape"></stop><stop offset=".283" stop-color="#e1edf6" class="stopColore1e5f6 svgShape"></stop><stop offset=".719" stop-color="#f7f9fd" class="stopColorf7f8fd svgShape"></stop><stop offset="1" stop-color="#ffffff" class="stopColorfff svgShape"></stop></linearGradient><linearGradient id="m" x1="1353.14" x2="1633.158" y1="903.293" y2="903.293" xlink:href="#a"></linearGradient><linearGradient id="n" x1="1340.664" x2="1462.322" y1="1020.477" y2="1020.477" xlink:href="#a"></linearGradient><linearGradient id="o" x1="365.657" x2="365.657" y1="1604.988" y2="1092.361" xlink:href="#b"></linearGradient><linearGradient id="p" x1="195.295" x2="195.295" y1="1604.988" y2="1092.361" xlink:href="#c"></linearGradient><linearGradient id="q" x1="426.927" x2="564.623" y1="903.892" y2="903.892" gradientUnits="userSpaceOnUse"><stop offset=".325" stop-color="#c4d6e4" class="stopColorc4c9e4 svgShape"></stop><stop offset="1" stop-color="#ffffff" class="stopColorfff svgShape"></stop></linearGradient><linearGradient id="d" x1="399.394" x2="524.361" y1="892.069" y2="892.069" gradientUnits="userSpaceOnUse"><stop offset="0" stop-color="#7cbbfb" class="stopColor807cfb svgShape"></stop><stop offset=".014" stop-color="#7bbafa" class="stopColor7f7bfa svgShape"></stop><stop offset=".448" stop-color="#5a72d1" class="stopColor5e5ad1 svgShape"></stop><stop offset=".792" stop-color="#465db8" class="stopColor4a46b8 svgShape"></stop><stop offset="1" stop-color="#3e55af" class="stopColor423eaf svgShape"></stop></linearGradient><linearGradient id="r" x1="399.394" x2="524.361" y1="903.998" y2="903.998" gradientUnits="userSpaceOnUse"><stop offset="0" stop-color="#d8e6f0" class="stopColord8def0 svgShape"></stop><stop offset=".551" stop-color="#c6d9e7" class="stopColorc6cce7 svgShape"></stop><stop offset="1" stop-color="#bdd3e3" class="stopColorbdc3e3 svgShape"></stop></linearGradient><linearGradient id="s" x1="399.394" x2="524.361" y1="915.927" y2="915.927" xlink:href="#d"></linearGradient><linearGradient id="t" x1="1165.21" x2="1404.195" y1="1171.535" y2="1171.535" gradientUnits="userSpaceOnUse"><stop offset="0" stop-color="#d1e3f0" class="stopColord1d6f0 svgShape"></stop><stop offset=".29" stop-color="#d5e5f1" class="stopColord5daf1 svgShape"></stop><stop offset=".592" stop-color="#e2edf5" class="stopColore2e5f5 svgShape"></stop><stop offset=".899" stop-color="#f6f8fc" class="stopColorf6f7fc svgShape"></stop><stop offset="1" stop-color="#ffffff" class="stopColorfff svgShape"></stop></linearGradient><linearGradient id="e" x1="1223.387" x2="1308.299" y1="1138.051" y2="1138.051" gradientUnits="userSpaceOnUse"><stop offset="0" stop-color="#bbd1e2" class="stopColorbbbfe2 svgShape"></stop><stop offset="1" stop-color="#cee4f4" class="stopColorced2f4 svgShape"></stop></linearGradient><linearGradient id="u" x1="1343.296" x2="1367.059" y1="1184.484" y2="1184.484" gradientUnits="userSpaceOnUse"><stop offset="0" stop-color="#a5c0d4" class="stopColora5acd4 svgShape"></stop><stop offset=".635" stop-color="#bed5e7" class="stopColorbec3e7 svgShape"></stop><stop offset="1" stop-color="#cee4f4" class="stopColorced2f4 svgShape"></stop></linearGradient><linearGradient id="v" x1="1165.21" x2="1189.089" y1="1184.511" y2="1184.511" xlink:href="#e"></linearGradient><linearGradient id="w" x1="1303.601" x2="1334.112" y1="1206.528" y2="1206.528" gradientUnits="userSpaceOnUse"><stop offset="0" stop-color="#a5c0d4" class="stopColora5acd4 svgShape"></stop><stop offset=".516" stop-color="#bcd4e6" class="stopColorbcc2e6 svgShape"></stop><stop offset="1" stop-color="#cee4f4" class="stopColorced2f4 svgShape"></stop></linearGradient><linearGradient id="x" x1="1198.453" x2="1229.019" y1="1206.56" y2="1206.56" xlink:href="#e"></linearGradient><linearGradient id="y" x1="1249.797" x2="1282.919" y1="1215.465" y2="1215.465" xlink:href="#e"></linearGradient><linearGradient id="z" x1="1205.67" x2="1326.018" y1="1126.479" y2="1126.479" xlink:href="#e"></linearGradient><linearGradient id="A" x1="925.96" x2="1127.81" y1="886.152" y2="671.349" gradientUnits="userSpaceOnUse"><stop offset="0" stop-color="#c2d7e6" class="stopColorc2c8e6 svgShape"></stop><stop offset=".543" stop-color="#e5eef5" class="stopColore5e8f5 svgShape"></stop><stop offset="1" stop-color="#ffffff" class="stopColorfff svgShape"></stop></linearGradient><linearGradient id="B" x1="741.821" x2="1160.243" y1="827.27" y2="827.27" gradientUnits="userSpaceOnUse"><stop offset="0" stop-color="#cee6f8" class="stopColorced3f8 svgShape"></stop><stop offset="1" stop-color="#bbd4e6" class="stopColorbbc0e6 svgShape"></stop></linearGradient><linearGradient id="f" x1="1004.101" x2="1126.368" y1="936.831" y2="936.831" gradientUnits="userSpaceOnUse"><stop offset=".453" stop-color="#c4d6e4" class="stopColorc4c9e4 svgShape"></stop><stop offset="1" stop-color="#ffffff" class="stopColorfff svgShape"></stop></linearGradient><linearGradient id="C" x1="926.011" x2="1048.278" y1="997.288" y2="997.288" xlink:href="#f"></linearGradient><linearGradient id="h" x1="976.088" x2="1095.844" y1="946.395" y2="946.395" gradientUnits="userSpaceOnUse"><stop offset="0" stop-color="#fbcb4b" class="stopColorfb944b svgShape"></stop><stop offset="1" stop-color="#c89d2b" class="stopColorc85a2b svgShape"></stop></linearGradient><linearGradient id="g" x1="987.34" x2="1084.6" y1="907.37" y2="907.37" gradientUnits="userSpaceOnUse"><stop offset="0" stop-color="#fbcb4b" class="stopColorfb944b svgShape"></stop><stop offset="1" stop-color="#e5b639" class="stopColore57139 svgShape"></stop></linearGradient><linearGradient id="D" x1="1017.491" x2="1043.774" y1="932.737" y2="932.737" xlink:href="#g"></linearGradient><linearGradient id="E" x1="897.999" x2="1017.754" y1="1006.852" y2="1006.852" xlink:href="#h"></linearGradient><linearGradient id="F" x1="909.251" x2="1006.51" y1="967.827" y2="967.827" xlink:href="#g"></linearGradient><linearGradient id="G" x1="939.401" x2="965.684" y1="993.194" y2="993.194" xlink:href="#g"></linearGradient><linearGradient id="H" x1="615.949" x2="738.217" y1="1158.626" y2="1158.626" xlink:href="#f"></linearGradient><linearGradient id="I" x1="587.937" x2="707.693" y1="1168.191" y2="1168.191" xlink:href="#h"></linearGradient><linearGradient id="c" x1="1199.026" x2="1199.026" y1="749.286" y2="157.677" gradientUnits="userSpaceOnUse"><stop offset=".474" stop-color="#ffffff" class="stopColorfff svgShape"></stop><stop offset=".891" stop-color="#e9f1f7" class="stopColore9edf7 svgShape"></stop></linearGradient><linearGradient id="K" x1="629.339" x2="655.622" y1="1154.532" y2="1154.532" xlink:href="#g"></linearGradient><linearGradient id="L" x1="976.088" x2="1076.046" y1="928.376" y2="928.376" xlink:href="#f"></linearGradient><linearGradient id="M" x1="956.11" x2="1015.84" y1="959.416" y2="959.416" xlink:href="#f"></linearGradient><linearGradient id="N" x1="925.78" x2="1045.536" y1="946.552" y2="946.552" xlink:href="#h"></linearGradient><linearGradient id="O" x1="937.03" x2="1034.29" y1="907.527" y2="907.527" xlink:href="#g"></linearGradient><linearGradient id="P" x1="967.182" x2="993.463" y1="932.894" y2="932.894" xlink:href="#g"></linearGradient><linearGradient id="Q" x1="1105.092" x2="1198.314" y1="959.178" y2="959.178" xlink:href="#f"></linearGradient><linearGradient id="R" x1="1080.522" x2="1172.273" y1="934.777" y2="934.777" xlink:href="#g"></linearGradient><linearGradient id="S" x1="1162.437" x2="1069.936" y1="987.227" y2="927.496" gradientUnits="userSpaceOnUse"><stop offset="0" stop-color="#e5b639" class="stopColore57139 svgShape"></stop><stop offset="1" stop-color="#fbcb4b" class="stopColorfb944b svgShape"></stop></linearGradient><linearGradient id="T" x1="1108.698" x2="1134.116" y1="954.684" y2="954.684" xlink:href="#g"></linearGradient><linearGradient id="i" x1="754.884" x2="904.964" y1="1254.439" y2="1254.439" gradientUnits="userSpaceOnUse"><stop offset="0" stop-color="#cfe2f1" class="stopColorcfd5f1 svgShape"></stop><stop offset=".007" stop-color="#d0e3f1" class="stopColord0d5f1 svgShape"></stop><stop offset=".389" stop-color="#eaf3f9" class="stopColoreaecf9 svgShape"></stop><stop offset=".732" stop-color="#f9fbfd" class="stopColorf9fafd svgShape"></stop><stop offset="1" stop-color="#ffffff" class="stopColorfff svgShape"></stop></linearGradient><linearGradient id="U" x1="827.453" x2="1031.483" y1="1204.821" y2="1204.821" xlink:href="#i"></linearGradient><linearGradient id="V" x1="908.352" x2="1048.451" y1="1283.41" y2="1283.41" xlink:href="#i"></linearGradient><linearGradient id="W" x1="892.239" x2="1063.872" y1="753.497" y2="753.497" gradientUnits="userSpaceOnUse"><stop offset=".427" stop-color="#c2d7e7" class="stopColorc2c8e7 svgShape"></stop><stop offset=".559" stop-color="#c9dcea" class="stopColorc9ceea svgShape"></stop><stop offset=".745" stop-color="#dbe8f1" class="stopColordbdef1 svgShape"></stop><stop offset=".961" stop-color="#f9fbfd" class="stopColorf9f9fd svgShape"></stop><stop offset="1" stop-color="#ffffff" class="stopColorfff svgShape"></stop></linearGradient><linearGradient id="X" x1="952.553" x2="1038.345" y1="738.157" y2="738.157" gradientUnits="userSpaceOnUse"><stop offset="0" stop-color="#c2d7e7" class="stopColorc2c8e7 svgShape"></stop><stop offset=".916" stop-color="#ffffff" class="stopColorfff svgShape"></stop></linearGradient><linearGradient id="Y" x1="866.729" x2="1038.368" y1="769.909" y2="769.909" gradientUnits="userSpaceOnUse"><stop offset="0" stop-color="#2e4392" class="stopColor362e92 svgShape"></stop><stop offset="1" stop-color="#7dbbf9" class="stopColor807df9 svgShape"></stop></linearGradient><linearGradient id="Z" x1="952.553" x2="995.14" y1="720.011" y2="720.011" gradientUnits="userSpaceOnUse"><stop offset="0" stop-color="#c2d7e7" class="stopColorc2c8e7 svgShape"></stop><stop offset="1" stop-color="#ffffff" class="stopColorfff svgShape"></stop></linearGradient><linearGradient id="j" x1="909.913" x2="995.187" y1="740.725" y2="740.725" gradientUnits="userSpaceOnUse"><stop offset="0" stop-color="#fbcb4b" class="stopColorfb944b svgShape"></stop><stop offset=".614" stop-color="#d9ac36" class="stopColord96d36 svgShape"></stop><stop offset="1" stop-color="#c89d2b" class="stopColorc85a2b svgShape"></stop></linearGradient><linearGradient id="aa" x1="931.23" x2="973.864" y1="687.279" y2="687.279" xlink:href="#j"></linearGradient><linearGradient id="ab" x1="931.23" x2="973.864" y1="656.699" y2="656.699" gradientUnits="userSpaceOnUse"><stop offset="0" stop-color="#ffffff" class="stopColorfff svgShape"></stop><stop offset=".14" stop-color="#fbfcfe" class="stopColorfbfcfe svgShape"></stop><stop offset="1" stop-color="#e8f1f7" class="stopColore8ecf7 svgShape"></stop></linearGradient><linearGradient id="ac" x1="769.587" x2="1135.507" y1="521.272" y2="521.272" xlink:href="#j"></linearGradient><linearGradient id="ad" x1="784.201" x2="1120.9" y1="388.049" y2="388.049" gradientUnits="userSpaceOnUse"><stop offset="0" stop-color="#c89d2b" class="stopColorc85a2b svgShape"></stop><stop offset=".242" stop-color="#cfa32f" class="stopColorcf622f svgShape"></stop><stop offset=".611" stop-color="#e1b33b" class="stopColore1773b svgShape"></stop><stop offset="1" stop-color="#fbcb4b" class="stopColorfb944b svgShape"></stop></linearGradient><linearGradient id="k" x1="894.929" x2="994.087" y1="1023.423" y2="1023.423" gradientTransform="translate(-228.072)" gradientUnits="userSpaceOnUse"><stop offset="0" stop-color="#c4d9e8" class="stopColorc4cae8 svgShape"></stop><stop offset=".095" stop-color="#cedfec" class="stopColorced3ec svgShape"></stop><stop offset=".409" stop-color="#e9f0f6" class="stopColore9ebf6 svgShape"></stop><stop offset=".687" stop-color="#f9fbfd" class="stopColorf9fafd svgShape"></stop><stop offset=".899" stop-color="#ffffff" class="stopColorfff svgShape"></stop></linearGradient><linearGradient id="ae" x1="807.68" x2="906.828" y1="997.125" y2="997.125" gradientTransform="translate(-186.014)" xlink:href="#k"></linearGradient><linearGradient id="l" x1="-1445.215" x2="-1408.666" y1="993.623" y2="993.623" gradientTransform="matrix(-1 0 0 1 -797.464 0)" gradientUnits="userSpaceOnUse"><stop offset="0" stop-color="#3e55af" class="stopColor423eaf svgShape"></stop><stop offset=".304" stop-color="#223eaa" class="stopColor3a35a0 svgShape"></stop><stop offset=".891" stop-color="#1e3077" class="stopColor241e77 svgShape"></stop><stop offset="1" stop-color="#19446f" class="stopColor1f196f svgShape"></stop></linearGradient><linearGradient id="af" x1="-1490.408" x2="-1453.861" y1="1019.928" y2="1019.928" xlink:href="#l"></linearGradient><linearGradient id="ag" x1="-1474.535" x2="-1412.491" y1="932.598" y2="932.598" gradientTransform="matrix(-1 0 0 1 -797.464 0)" gradientUnits="userSpaceOnUse"><stop offset="0" stop-color="#3e55af" class="stopColor423eaf svgShape"></stop><stop offset=".301" stop-color="#304597" class="stopColor353097 svgShape"></stop><stop offset=".746" stop-color="#1f327a" class="stopColor251f7a svgShape"></stop><stop offset="1" stop-color="#19446f" class="stopColor1f196f svgShape"></stop></linearGradient><linearGradient id="ah" x1="602.813" x2="710.187" y1="833.015" y2="833.015" gradientTransform="rotate(-6.414 354.543 764.015)" gradientUnits="userSpaceOnUse"><stop offset="0" stop-color="#7dbcfb" class="stopColor807dfb svgShape"></stop><stop offset="1" stop-color="#526bcc" class="stopColor5652cc svgShape"></stop></linearGradient><linearGradient id="ai" x1="1345.801" x2="1392.29" y1="580.079" y2="660.6" gradientUnits="userSpaceOnUse"><stop offset=".337" stop-color="#7dbcfb" class="stopColor807dfb svgShape"></stop><stop offset=".447" stop-color="#76b4f2" class="stopColor7a76f2 svgShape"></stop><stop offset=".625" stop-color="#2288ef" class="stopColor6863da svgShape"></stop><stop offset=".85" stop-color="#455bb2" class="stopColor4c45b2 svgShape"></stop><stop offset="1" stop-color="#2e4394" class="stopColor362e94 svgShape"></stop></linearGradient><linearGradient id="aj" x1="1353.14" x2="1412.46" y1="679.322" y2="679.322" gradientUnits="userSpaceOnUse"><stop offset="0" stop-color="#c2d4e2" class="stopColorc2c7e2 svgShape"></stop><stop offset=".216" stop-color="#d6e2eb" class="stopColord6d9eb svgShape"></stop><stop offset=".701" stop-color="#ffffff" class="stopColorfff svgShape"></stop></linearGradient></defs><g style="isolation:isolate" fill="#000000" class="color000 svgShape"><polygon fill="url(#b)" points="1367.091 157.676 1255.046 222.363 1255.046 488.709 1367.091 488.709 1367.091 157.676"></polygon><polygon fill="#f1f4f9" points="1255.046 222.363 1143.007 157.676 1255.046 92.994 1367.091 157.676 1255.046 222.363" class="colorf1f3f9 svgShape"></polygon><polygon fill="url(#c)" points="1255.046 222.363 1143.007 157.676 1143.007 488.709 1255.046 488.709 1255.046 222.363"></polygon><polygon fill="url(#a)" style="mix-blend-mode:multiply" points="690.602 563.844 464.636 563.844 605.896 647.924 464.636 729.506 690.602 729.506 834.022 646.699 690.602 563.844"></polygon><polygon fill="#b9d2e4" points="464.636 729.506 605.896 647.924 605.896 394.567 464.636 476.119 464.636 729.506" class="colorb9bee4 svgShape"></polygon><polygon fill="#cce4f6" points="464.636 729.506 323.356 647.924 323.356 394.567 464.636 476.119 464.636 729.506" class="colorccd1f6 svgShape"></polygon><polygon fill="#f4f6f9" points="464.636 476.119 323.356 394.567 464.636 313.039 605.896 394.567 464.636 476.119" class="colorf4f4f9 svgShape"></polygon><polygon fill="url(#m)" style="mix-blend-mode:multiply" points="1554.692 829.411 1353.14 829.411 1479.138 904.407 1353.14 977.175 1554.692 977.175 1632.844 932.053 1633.158 874.742 1554.692 829.411"></polygon><polygon fill="#b9d2e4" points="1353.14 977.175 1479.138 904.407 1479.138 678.423 1353.14 751.164 1353.14 977.175" class="colorb9bee4 svgShape"></polygon><polygon fill="#cce4f6" points="1353.14 977.175 1227.124 904.407 1227.124 678.423 1353.14 751.164 1353.14 977.175" class="colorccd1f6 svgShape"></polygon><polygon fill="#f4f6f9" points="1353.14 751.164 1227.124 678.423 1353.14 605.703 1479.138 678.423 1353.14 751.164" class="colorf4f4f9 svgShape"></polygon><polygon fill="url(#n)" style="mix-blend-mode:multiply" points="1415.086 993.197 1340.664 993.197 1387.188 1020.89 1340.664 1047.758 1415.086 1047.758 1462.322 1020.483 1415.086 993.197"></polygon><polygon fill="#3e55af" points="1340.664 1047.758 1387.188 1020.89 1387.188 966.339 1340.664 993.197 1340.664 1047.758" class="color423eaf svgShape"></polygon><polygon fill="#526bcc" points="1340.664 1047.758 1294.132 1020.89 1294.132 966.339 1340.664 993.197 1340.664 1047.758" class="color5652cc svgShape"></polygon><polygon fill="#7dbcfb" points="1340.664 993.197 1294.132 966.339 1340.664 939.489 1387.188 966.339 1340.664 993.197" class="color807dfb svgShape"></polygon><polygon fill="url(#o)" points="450.84 1092.36 280.473 1190.717 280.473 1379.199 450.84 1379.199 450.84 1092.36"></polygon><polygon fill="#f1f4f9" points="280.473 1190.717 110.117 1092.36 280.473 994.007 450.84 1092.36 280.473 1190.717" class="colorf1f3f9 svgShape"></polygon><polygon fill="url(#p)" points="280.473 1190.717 110.117 1092.36 110.117 1379.199 280.473 1379.199 280.473 1190.717"></polygon><path fill="#f5f7fa" d="M1470.147,203.17472l-9.052,5.2257c-5.284,3.0539-12.5672-13.613-18.4834-10.196l-15.8652,9.1589c-11.8311,6.8306-7.5589-13.056-25.2544-2.841-20.7922,12.0066-19.0902,36.1046-30.9192,42.9336l-15.8654,9.1604c-5.9128,3.4154-7.5296,17.5548-12.817,20.606l-9.0518,5.2284c-1.9738,1.1364-5.7368,4.279-5.7368,8.401,2.6898-1.5508,74.3902-42.9498,74.3902-42.9498s71.702-41.3975,74.3918-42.95C1475.8838,200.83192,1472.1192,202.03492,1470.147,203.17472Z" class="colorf6f6fb svgShape"></path><path fill="url(#q)" style="mix-blend-mode:multiply" d="M546.18259,878.2938c-13.056-7.5346-30.41419-11.007-47.4564-10.5014H459.205v4.3814a70.76373,70.76373,0,0,0-14.1372,6.12c-24.30539,14.1344-24.16539,37.04.2922,51.1712a71.13086,71.13086,0,0,0,13.845,5.9974v4.577H504.0514c15.42039-.26,30.69419-3.7584,42.42359-10.5714C570.7804,915.3338,570.6604,892.4282,546.18259,878.2938Z"></path><path fill="url(#d)" d="M417.83079,905.6158c-12.3076-7.1114-18.4686-16.4436-18.4368-25.7612l.0528-11.9364c-.0232,9.3296,6.12,18.659,18.4364,25.7696,24.47521,14.1258,64.0136,14.1258,88.3224.006,12.0824-7.0264,18.1266-16.2068,18.15581-25.4074l-.05841,11.9278c-.0262,9.2008-6.07059,18.3812-18.1472,25.4072C481.84719,919.7528,442.30259,919.7528,417.83079,905.6158Z"></path><path fill="url(#r)" d="M417.83079,917.546c-12.3076-7.111-18.4686-16.443-18.4368-25.7608l.0528-11.9364c-.0232,9.3264,6.12,18.6556,18.4364,25.767,24.47521,14.1284,64.0136,14.1284,88.3224.0086,12.0824-7.029,18.1266-16.2094,18.15581-25.4102l-.05841,11.9304c-.0262,9.201-6.07059,18.378-18.1472,25.4044C481.84719,931.6806,442.30259,931.6806,417.83079,917.546Z"></path><path fill="url(#s)" d="M417.83079,929.474c-12.3076-7.111-18.4686-16.4434-18.4368-25.7612l.0528-11.9362c-.0232,9.3294,6.12,18.6584,18.4364,25.7694,24.47521,14.1258,64.0136,14.1258,88.3224.0062,12.0824-7.0296,18.1266-16.2066,18.15581-25.4076l-.05841,11.9278c-.0262,9.2008-6.07059,18.3812-18.1472,25.4072C481.84719,943.6112,442.30259,943.6112,417.83079,929.474Z"></path><path fill="#f5f7fa" d="M417.88319,893.6878c-24.4662-14.1254-24.6006-37.03939-.295-51.15919,24.314-14.1316,63.8678-14.1316,88.3308,0,24.4778,14.1198,24.5918,37.03379.2866,51.16519C481.89679,907.8136,442.3584,907.8136,417.88319,893.6878Z" class="colorf6f6fb svgShape"></path><polygon fill="#bbd4e6" points="496.841 863.429 446.83 865.975 448.379 854.734 434.563 854.734 430.811 875.222 496.841 871.411 496.841 863.429" class="colorbbc0e6 svgShape"></polygon><path fill="#e2f2fe" style="mix-blend-mode:multiply" d="M495.26259,416.78972l7.83981-4.5214c-2.67441-1.5424-8.58881-5.8162-5.996-8.365l-.00321.0034a17.7446,17.7446,0,0,0,1.9116-2.664v.0034c1.2878-2.864,10.7034-3.4672,14.4762-3.4672l.003-6.3995c-3.779,0-13.1914-.6065-14.4792-3.4671h0a17.62769,17.62769,0,0,0-1.9116-2.6609l.00321.0037c-2.59281-2.5524,3.32159-6.8232,5.99239-8.3652l-7.8326-4.5248c-2.6744,1.5456-10.0736,4.9586-14.4932,3.4606h.0036c-1.4984-.4306-3.0368-.8-4.603-1.098-4.9586-.746-6.006-6.1824-6.006-8.3618h-11.083c0,2.1828-1.0476,7.6158-6.0064,8.3618-1.569.298-3.1044.6674-4.606,1.098h.0068c-4.41959,1.498-11.8154-1.9184-14.4862-3.4606l-7.8396,4.5248c2.67421,1.542,8.58521,5.8162,5.9956,8.3652h0a17.57776,17.57776,0,0,0-1.9116,2.6572h0c-1.2846,2.8606-10.7004,3.4671-14.4794,3.4671v6.3995c3.779,0,13.1918.6032,14.4828,3.4672h-.0034a17.63731,17.63731,0,0,0,1.9116,2.6606l-.003-.0034c2.596,2.5488-3.31839,6.8226-5.9892,8.365l7.83281,4.525c2.67419-1.5424,10.073-4.9586,14.48959-3.4609l-.0034-.0033c1.4982.4303,3.03681.8,4.6062,1.1013h0c4.9518.7457,6.0028,6.1827,6.0058,8.3619h11.08c0-2.1792,1.05081-7.6162,6.0094-8.3619h-.0068c1.5696-.3013,3.1114-.6675,4.6094-1.1013l-.003.0033C485.196,411.83472,492.595,415.24772,495.26259,416.78972Zm-44.5298-14.1878c-7.67339-4.4302-7.677-11.6156,0-16.0455,7.6738-4.43,20.116-4.43,27.7862,0,7.677,4.4299,7.6736,11.6153,0,16.0455C470.8454,407.03172,458.40659,407.03172,450.73279,402.60192Z" class="colore8ecf7 svgShape"></path><path fill="url(#t)" style="mix-blend-mode:multiply" d="M1380.6012,1196.3644a9.29271,9.29271,0,0,1,3.2552-2.139h14.3454l5.9936-13.1194-5.404-.8378a14.977,14.977,0,0,1-5.05-1.6712c-1.7426-1.0064-3.0276-2.458-3.005-4.4462a33.95542,33.95542,0,0,0-.0124-5.2252c-.1156-3.745,4.465-5.5768,7.9476-6.1216l5.4182-.8398-6.1462-13.1094h-14.3292a11.24016,11.24016,0,0,1-1.3642-.6548,8.89643,8.89643,0,0,1-1.9274-1.488,59.148,59.148,0,0,0-4.5338-4.5298c-3.3362-3.2226-.9496-6.14,1.596-7.6202l3.944-2.2932-16.6268-9.6006-3.9462,2.2934a16.34608,16.34608,0,0,1-13.1462.9516c-2.5576-.9494-5.1782-1.8218-7.8396-2.6146a13.45456,13.45456,0,0,1-2.5698-1.11c-3.192-1.8442-3.3568-4.3062-2.6084-5.9632l1.4334-3.1228-22.665-3.5172-1.4314,3.1288c-.917,2.023-4.0642,4.6904-10.5294,4.6416-3.011-.0814-6.0242-.0814-9.0208-.0102a15.00413,15.00413,0,0,1-7.6994-1.7158,7.01554,7.01554,0,0,1-2.9034-2.9094l-1.4578-3.135-22.6264,3.5172,1.47,3.1228c.9436,2.025.5286,5.2414-5.095,7.0732q-3.9888,1.1892-7.8112,2.6186a16.41792,16.41792,0,0,1-13.1522-.9534l-3.9788-2.2956-16.5188,9.6006,3.9684,2.2952c2.5638,1.4782,4.9832,4.3956,1.6936,7.616a55.55352,55.55352,0,0,0-4.4932,4.538c-3.135,3.259-8.6812,3.5132-12.1742,2.9744l-5.4242-.8376-5.998,13.1094,5.4122.8436a15.00908,15.00908,0,0,1,5.0484,1.6714c1.7362,1.0002,3.0232,2.4518,3.007,4.4464a32.89923,32.89923,0,0,0,.006,5.217,4.38954,4.38954,0,0,1-1.4902,3.383h-36.952v16.6998h45.5582a10.26882,10.26882,0,0,1,1.3478.6488,8.853,8.853,0,0,1,1.9298,1.4842,57.71333,57.71333,0,0,0,4.552,4.5316,5.835,5.835,0,0,1,1.3152,1.7994h-21.4592v17.7124h32.4582v-.7218l2.706-1.5716a16.37669,16.37669,0,0,1,13.1564-.9514c.9962.3698,2.0066.7196,3.0234,1.0694v15.2584h31.027v-.0306l.1892.0306,1.4352-3.129a4.38785,4.38785,0,0,1,.3886-.6852v3.8142h31.2222l22.6224-3.5092-1.4638-3.129c-.8478-1.8094-.5896-4.5724,3.5008-6.4448h26.5324l16.521-9.6024-3.9626-2.2852c-2.5698-1.4822-4.9892-4.4058-1.6976-7.6242A55.63735,55.63735,0,0,0,1380.6012,1196.3644Zm-53.2328-7.4026c-16.6308,9.6714-43.716,9.6796-60.4706.008-16.7488-9.6734-16.8302-25.3628-.1972-35.0322,16.653-9.6756,43.728-9.6696,60.4808,0C1343.934,1163.611,1344.0194,1179.2902,1327.3684,1188.9618Z"></path><path fill="url(#e)" d="M1295.77,1125.8828c-16.633-9.6046-43.5226-9.6106-60.054,0-14.7054,8.545-16.2446,21.8252-4.6782,31.4154a34.7157,34.7157,0,0,1,4.6782-3.2368c16.5314-9.6084,43.421-9.6042,60.054,0a34.98374,34.98374,0,0,1,4.8714,3.363C1312.2806,1147.826,1310.6462,1134.4706,1295.77,1125.8828Z"></path><path fill="#bbd1e2" d="M1303.453 1087.9592a4.11655 4.11655 0 00-.372 1.6794l-.0794 28.2682a4.07465 4.07465 0 01.372-1.6814l1.4292-3.1228.0814-28.2682zM1228.0186 1087.9592l-1.4638-3.1248-.0814 28.2682 1.468 3.1228a4.17534 4.17534 0 01.3944 1.7546l.0772-28.2702A4.05571 4.05571 0 001228.0186 1087.9592zM1346.2436 1106.2898c-1.6466.9594-3.2286 2.523-3.2366 4.381l-.0794 28.2686c.0062-1.8544 1.5858-3.4198 3.2388-4.3774l3.9422-2.2932.0792-28.2686z" class="colorbbbfe2 svgShape"></path><path fill="#cee4f4" d="M1185.4308,1106.2938l-3.9664-2.2936-.0814,28.2686,3.9706,2.2952c1.6774.9658,3.2918,2.5474,3.2898,4.43l.077-28.2682C1188.7266,1108.8452,1187.1104,1107.2594,1185.4308,1106.2938Z" class="colorced2f4 svgShape"></path><path fill="#bbd1e2" d="M1367.5282,1134.5356c-3.4338.5368-7.9372,2.3278-7.9432,5.9712l-.0854,28.2682c.012-3.6452,4.5138-5.4344,7.9534-5.971l5.4144-.8398.0794-28.2704Z" class="colorbbbfe2 svgShape"></path><path fill="#12263a" d="M1359.6906,1143.4832l-.0792,28.2704c0,.797-.0346,1.6-.0956,2.3972l.0832-28.2686C1359.6582,1145.0832,1359.6886,1144.2862,1359.6906,1143.4832Z" class="color242d3c svgShape"></path><path fill="#cee4f4" d="M1172.4902,1145.3314l.0124-4.6762c.0182-1.9944-1.2646-3.442-3.003-4.4444a15.12349,15.12349,0,0,0-5.0482-1.6752l-5.412-.8376-.0794,28.2662,5.41.8436a14.97754,14.97754,0,0,1,5.0482,1.6714,5.51679,5.51679,0,0,1,2.9176,3.5762l-.0102,3.3018c0,.931.0344,1.8622.1058,2.7854l.0814-28.2684C1172.4962,1145.6954,1172.5026,1145.5102,1172.4902,1145.3314Z" class="colorced2f4 svgShape"></path><path fill="#12263a" d="M1172.5146,1146.0186l-.0832,28.2682v-.1442l.0814-28.2684C1172.5128,1145.923,1172.5146,1145.9698,1172.5146,1146.0186Z" class="color242d3c svgShape"></path><polygon fill="#bbd1e2" points="1373.056 1152.838 1372.975 1181.106 1366.979 1194.225 1367.059 1165.955 1373.056 1152.838" class="colorbbbfe2 svgShape"></polygon><polygon fill="#cee4f4" points="1165.291 1165.955 1165.21 1194.225 1159.074 1181.112 1159.155 1152.84 1165.291 1165.955" class="colorced2f4 svgShape"></polygon><path fill="url(#u)" d="M1361.6404,1165.1154c-3.4888-.5408-9.039-.2886-12.1804,2.9826a54.92831,54.92831,0,0,1-4.491,4.5216,4.50243,4.50243,0,0,0-1.594,3.184l-.0792,28.2702a4.49112,4.49112,0,0,1,1.5938-3.1838,55.41417,55.41417,0,0,0,4.4932-4.5256c3.1352-3.2692,8.6894-3.5192,12.1782-2.9806l5.4184.8416.0792-28.2702Z"></path><path fill="url(#v)" d="M1187.456,1172.6196a57.70147,57.70147,0,0,1-4.5522-4.5298,8.6639,8.6639,0,0,0-1.927-1.482c-3.1924-1.8482-7.4394-1.9356-10.292-1.4924l-5.3938.8398-.0814,28.2702,5.398-.8416c2.8504-.4412,7.0998-.3518,10.2874,1.4904a9.06473,9.06473,0,0,1,1.9336,1.4842,57.00734,57.00734,0,0,0,4.546,4.5316,4.53662,4.53662,0,0,1,1.6348,3.2388l.0792-28.2684A4.56334,4.56334,0,0,0,1187.456,1172.6196Z"></path><polygon fill="#bbd1e2" points="1350.631 1182.533 1350.55 1210.799 1334.033 1220.402 1334.112 1192.134 1350.631 1182.533" class="colorbbbfe2 svgShape"></polygon><polygon fill="#cee4f4" points="1198.535 1192.134 1198.453 1220.402 1181.826 1210.799 1181.908 1182.533 1198.535 1192.134" class="colorced2f4 svgShape"></polygon><path fill="url(#w)" d="M1330.1334,1189.836a16.41436,16.41436,0,0,0-13.152-.9392c-2.5374.9412-5.1458,1.8196-7.8114,2.6144-4.182,1.3602-5.4854,3.4868-5.4892,5.3186l-.0794,28.2704c.004-1.8318,1.3114-3.9604,5.4894-5.3206q3.9981-1.1955,7.8132-2.6166a16.397,16.397,0,0,1,13.1482.9432l3.9808,2.2956.079-28.2682Z"></path><path fill="url(#x)" d="M1226.0404,1192.6194a13.75015,13.75015,0,0,0-2.58-1.1122c-2.6674-.7908-5.2758-1.6712-7.8274-2.6186a16.37214,16.37214,0,0,0-13.1542.9494l-3.9442,2.2956-.0812,28.2682,3.946-2.2934a16.36593,16.36593,0,0,1,13.1522-.9514q3.8307,1.4238,7.8294,2.6186a13.01526,13.01526,0,0,1,2.578,1.1142c2.2304,1.2888,2.9846,2.8746,2.9786,4.2796l.0814-28.2684C1229.023,1195.4962,1228.2708,1193.9084,1226.0404,1192.6194Z"></path><polygon fill="#bbd1e2" points="1305.543 1201.707 1305.462 1229.976 1282.837 1233.485 1282.919 1205.216 1305.543 1201.707" class="colorbbbfe2 svgShape"></polygon><path fill="url(#y)" d="M1281.4506,1202.0854a6.94568,6.94568,0,0,0-2.9012-2.9174,15.00421,15.00421,0,0,0-7.6952-1.714c-2.9928.0734-6.0098.0734-9.0168-.008-6.4614-.0428-9.6004,2.6226-10.5316,4.6394l-1.4314,3.131-.077,28.2684,1.4272-3.129c.9292-2.023,4.0742-4.6844,10.5334-4.6436,3.007.0834,6.022.0834,9.0148.0122a14.992,14.992,0,0,1,7.6974,1.714,6.9203,6.9203,0,0,1,2.9012,2.9174l1.466,3.129.0812-28.2684Z"></path><path fill="#f0f2f5" d="M1346.6666,1180.2458l3.9644,2.2872-16.519,9.6006-3.9786-2.2976a16.41436,16.41436,0,0,0-13.152-.9392c-2.5374.9412-5.1458,1.8196-7.8114,2.6144-5.6236,1.832-6.0424,5.0482-5.097,7.0672l1.47,3.129-22.6244,3.509-1.468-3.131a6.94568,6.94568,0,0,0-2.9012-2.9174,15.00421,15.00421,0,0,0-7.6952-1.714c-2.9928.0734-6.0098.0734-9.0168-.008-6.4614-.0428-9.6004,2.6226-10.5316,4.6394l-1.4314,3.131-22.6628-3.509,1.4372-3.137c.7542-1.653.5776-4.107-2.6084-5.951a13.75015,13.75015,0,0,0-2.58-1.1122c-2.6674-.7908-5.2758-1.6712-7.8274-2.6186a16.37214,16.37214,0,0,0-13.1542.9494l-3.9442,2.2956-16.627-9.6006,3.9442-2.2952c2.5436-1.4782,4.9344-4.3916,1.602-7.6182a58.04273,58.04273,0,0,1-4.55-4.5298,8.87309,8.87309,0,0,0-1.927-1.488c-3.1924-1.8422-7.4394-1.9296-10.292-1.4864l-5.3938.8398-6.136-13.1156,5.4024-.8376c3.4844-.5448,8.063-2.3766,7.9554-6.1278a33.33235,33.33235,0,0,1-.0102-5.219c.0182-1.9944-1.2646-3.442-3.003-4.4444a15.12349,15.12349,0,0,0-5.0482-1.6752l-5.412-.8376,5.9956-13.1136,5.4264.8398c3.4848.5366,9.035.2806,12.172-2.9746a57.11478,57.11478,0,0,1,4.4912-4.5378c3.2916-3.2204.8702-6.14-1.6938-7.618l-3.9664-2.2936,16.5212-9.596,3.9768,2.2932a16.4183,16.4183,0,0,0,13.1502.9496q3.8211-1.4244,7.813-2.6166c5.6258-1.83,6.0406-5.0502,5.093-7.0712l-1.4638-3.1248,22.6226-3.5174,1.4576,3.135a7.00635,7.00635,0,0,0,2.9052,2.9096,15.00486,15.00486,0,0,0,7.7014,1.7158c2.9906-.069,6.0098-.069,9.0208.0082,6.4612.0466,9.6126-2.6186,10.5274-4.6396l1.4316-3.131,22.6628,3.5194-1.4312,3.1248c-.7504,1.655-.5876,4.117,2.6044,5.961a13.55746,13.55746,0,0,0,2.57,1.1102q4.0008,1.1892,7.8396,2.6166a16.36678,16.36678,0,0,0,13.148-.9536l3.9484-2.2954,16.6244,9.6022-3.9442,2.2896c-2.5454,1.482-4.9322,4.4016-1.5958,7.624a58.78415,58.78415,0,0,1,4.5336,4.5296,8.87691,8.87691,0,0,0,1.9296,1.4884c3.192,1.844,7.4512,1.9294,10.2976,1.4882l5.3938-.8356,6.1444,13.1094-5.4186.8418c-3.4806.545-8.0612,2.3766-7.9412,6.1236a34.38693,34.38693,0,0,1,.012,5.223c-.0282,1.9884,1.2606,3.4442,3.001,4.4446a15.00286,15.00286,0,0,0,5.0522,1.6752l5.4042.8356-5.9978,13.1176-5.4182-.8398c-3.4888-.5408-9.039-.2886-12.1804,2.9826a54.92831,54.92831,0,0,1-4.491,4.5216C1341.6774,1175.8422,1344.0988,1178.7596,1346.6666,1180.2458Zm-110.9078-19.5442c16.7508,9.6716,43.8356,9.6614,60.4726-.0042,16.649-9.6796,16.5576-25.3566-.1912-35.0282-16.7508-9.6694-43.8254-9.6776-60.4808,0-16.6286,9.6694-16.5536,25.361.1994,35.0324Z" class="colorf0f0f5 svgShape"></path><polygon fill="#cee4f4" points="1249.874 1205.216 1249.797 1233.485 1227.132 1229.976 1227.212 1201.707 1249.874 1205.216" class="colorced2f4 svgShape"></polygon><path fill="#e0e6eb" d="M1308.2674,1120.8874c-23.58-13.6096-61.6866-13.6198-85.126,0-11.1558,6.4856-16.9584,14.8904-17.442,23.3848.4552,8.6,6.3532,17.1308,17.7204,23.6896,23.58,13.6156,61.6904,13.5994,85.1078-.008,11.1718-6.4898,16.9764-14.8926,17.4564-23.3868C1325.5262,1135.971,1319.6282,1127.448,1308.2674,1120.8874Zm-12.3064,39.81c-16.521,9.5984-43.413,9.6086-60.052.0042-7.866-4.544-12.0256-10.4298-12.479-16.3826.4676-5.8818,4.558-11.6782,12.286-16.1674,16.5314-9.6084,43.421-9.6042,60.054,0,7.874,4.542,12.0318,10.4196,12.4894,16.3748C1307.7896,1150.406,1303.6928,1156.2024,1295.961,1160.6974Z" class="colore0e0eb svgShape"></path><path fill="url(#z)" d="M1223.1414,1120.8874c23.4394-13.6198,61.546-13.6096,85.126,0,11.3528,6.5588,17.2568,15.0734,17.7166,23.6612.5426-9.3422-5.3614-18.794-17.7166-25.9282-23.58-13.6116-61.6866-13.6198-85.126,0-12.144,7.057-17.942,16.389-17.442,25.6354C1206.1914,1135.7636,1211.9916,1127.369,1223.1414,1120.8874Z"></path><path fill="url(#A)" style="mix-blend-mode:multiply" d="M1150.5364,697.06521c-43.7174-25.2368-101.8352-36.86141-158.911-35.1596H942.092V676.563a236.95,236.95,0,0,0-47.338,20.5022c-81.37442,47.331-80.90182,124.0084.9854,171.32519a236.88932,236.88932,0,0,0,46.3526,20.0884v15.3138h67.379c51.6164-.8568,102.7638-12.571,142.045-35.381C1232.8996,821.07361,1232.4846,744.39621,1150.5364,697.06521Z"></path><path fill="url(#B)" d="M803.56178,868.4178c-41.2246-23.81059-61.8326-55.04639-61.7408-86.24919l.18142-31.548c-.07882,31.2298,20.495,62.462,61.72678,86.2844,81.95182,47.28859,214.33922,47.28859,295.72382.0222,40.4456-23.531,60.6908-54.26141,60.7898-85.07741l-.1922,31.52581c-.079,30.802-20.323,61.5334-60.7542,85.06319C1017.9056,915.75,885.4948,915.75,803.56178,868.4178Z"></path><path fill="#f5f7fa" d="M803.72918,836.905c-81.913-47.2958-82.3666-124.0086-.9854-171.29721,81.40982-47.30979,213.84642-47.30979,295.75242,0,81.9564,47.28861,82.3406,124.00141.9568,171.31941C1018.0684,884.1936,885.681,884.1936,803.72918,836.905Z" class="colorf5f5fa svgShape"></path><path fill="url(#f)" style="mix-blend-mode:multiply" d="M1108.317,911.7774c-12.7794-7.379-29.7716-10.7834-46.461-10.2814h-26.1602v4.2852a69.08976,69.08976,0,0,0-13.8418,5.9962c-23.787,13.832-23.6502,36.2538.2912,50.08a69.79106,69.79106,0,0,0,13.5506,5.875v4.4824h31.379c15.0878-.2578,30.0488-3.6796,41.5274-10.3516C1132.397,948.0312,1132.278,925.6094,1108.317,911.7774Z"></path><path fill="url(#C)" style="mix-blend-mode:multiply" d="M1030.2272,972.2344c-12.7814-7.379-29.7716-10.7832-46.461-10.2814H957.606v4.2852a69.08976,69.08976,0,0,0-13.8418,5.9962c-23.787,13.832-23.6504,36.2558.291,50.08a69.78073,69.78073,0,0,0,13.5508,5.875v4.4824h31.379c15.0878-.2578,30.0488-3.6796,41.5272-10.3496C1054.3072,1008.4902,1054.188,986.0664,1030.2272,972.2344Z"></path><path fill="#ffd76e" d="M976.0884,920.5762c-.0018-8.8418,5.8418-17.6934,17.5372-24.4454,11.6914-6.748,27.0196-10.127,42.3438-10.127,15.3222,0,30.6464,3.379,42.3358,10.127,11.6934,6.752,17.5392,15.5958,17.5392,24.4454.0058,8.8456-5.84,17.6932-17.5392,24.4452-11.6894,6.754-27.0098,10.127-42.334,10.127s-30.6464-3.373-42.3418-10.127C981.9362,938.2694,976.0904,929.4218,976.0884,920.5762Z" class="colorffcf6e svgShape"></path><path fill="url(#h)" d="M1078.3052,945.0214c-11.6894,6.754-27.0098,10.127-42.334,10.127s-30.6464-3.373-42.3418-10.127c-11.6932-6.752-17.539-15.5996-17.541-24.4452v17.0664c.002,8.8476,5.8478,17.6952,17.541,24.4452,11.6954,6.752,27.0176,10.127,42.3418,10.127s30.6446-3.375,42.334-10.125c11.6992-6.748,17.545-15.5996,17.5392-24.4492V920.5762C1095.8502,929.4218,1090.0044,938.2694,1078.3052,945.0214Z"></path><path fill="#ffd76d" d="M1001.5826,940.4296c9.498,5.4786,21.9434,8.2246,34.3886,8.2246,12.4434,0,24.8908-2.746,34.381-8.2246,8.7636-5.0586,13.4726-11.5644,14.1464-18.1894-.6738-6.6192-5.3828-13.125-14.1464-18.1894-9.4962-5.4824-21.9414-8.2228-34.3848-8.2228-12.4472,0-24.8886,2.7404-34.3886,8.2228-8.7598,5.0644-13.465,11.5664-14.1466,18.1874C988.1138,928.8612,992.819,935.369,1001.5826,940.4296Z" class="colorffaf6d svgShape"></path><path fill="url(#g)" d="M1001.5788,904.0508c9.5-5.4824,21.9414-8.2228,34.3886-8.2228,12.4434,0,24.8886,2.7404,34.3848,8.2228,8.7636,5.0644,13.4726,11.5702,14.1464,18.1894a15.29625,15.29625,0,0,0,.1016-1.664c0-7.1876-4.75-14.3712-14.248-19.8496-9.4962-5.4864-21.9414-8.2266-34.3848-8.2266-12.4472,0-24.8886,2.7402-34.3886,8.2266-9.4942,5.4784-14.2384,12.662-14.2384,19.8496a15.76567,15.76567,0,0,0,.0918,1.662C988.1138,915.6172,992.819,909.1152,1001.5788,904.0508Z"></path><polygon fill="#e5b639" points="1059.926 913.434 1064.526 910.779 1064.526 907.457 1059.926 910.105 1059.926 913.434" class="colore57139 svgShape"></polygon><path fill="#ffd76e" d="M1038.7096,918.996c-1.7148-.9882-2.6622-2.3066-2.6622-3.709,0-1.3964.9474-2.7148,2.6622-3.705a14.20914,14.20914,0,0,1,12.8398-.002c3.543,2.043,3.543,5.373,0,7.416l5.8262,3.3614c5.752-3.3164,6.5898-8.4044,2.5508-12.252l4.5996-2.6484-5.8302-3.3692-4.5976,2.6562c-6.6562-2.33-15.4668-1.8436-21.2188,1.4786-3.2754,1.8828-5.0742,4.3946-5.0742,7.0644,0,2.6738,1.8008,5.1856,5.0742,7.0704,3.543,2.0508,3.545,5.373,0,7.418a14.21012,14.21012,0,0,1-12.8456,0c-3.541-2.045-3.541-5.3672.0038-7.418l-5.826-3.3614c-5.754,3.3184-6.5918,8.4044-2.5528,12.25l-4.2422,2.4492,5.83,3.3692,4.2442-2.455c6.6602,2.33,15.4688,1.8554,21.2188-1.465C1045.4616,929.2402,1045.4616,922.9004,1038.7096,918.996Z" class="colorffcf6e svgShape"></path><polygon fill="#fbcb4b" points="1007.417 937.027 1013.247 940.389 1013.247 937.064 1007.417 933.695 1007.417 937.027" class="colorfb944b svgShape"></polygon><polygon fill="#e5b639" points="1013.247 940.389 1017.491 937.936 1017.491 934.609 1013.247 937.064 1013.247 940.389" class="colore57139 svgShape"></polygon><polygon fill="#fbcb4b" points="1051.549 922.322 1057.376 925.687 1057.376 922.357 1051.549 918.996 1051.549 922.322" class="colorfb944b svgShape"></polygon><path fill="#e5b639" d="M1020.0376,925.6874v-3.33c-2.5136,1.455-3.2362,3.5508-2.1816,5.373A5.77587,5.77587,0,0,1,1020.0376,925.6874Z" class="colore57139 svgShape"></path><path fill="#fbcb4b" d="M1009.153 925.8984l.0096 3.75.0078-.0078a6.39193 6.39193 0 00.7228 2.627l1.7656-1.0216a7.1417 7.1417 0 01-2.4922-5.3358zM1032.8794 925.6836a5.7972 5.7972 0 012.1818 2.0468c1.0526-1.8222.33-3.918-2.1818-5.373-3.2734-1.8848-5.0742-4.3966-5.0742-7.0704v3.332C1027.8052 921.287 1029.606 923.7988 1032.8794 925.6836z" class="colorfb944b svgShape"></path><path fill="#fcc430" d="M1043.774,926.0546v-.0722h-.0058C1043.7682,926.0058,1043.774,926.0274,1043.774,926.0546Z" class="colorfbba05 svgShape"></path><path fill="#e5b639" d="M1062.4186,915.2852c.0116,2.5624-1.6582,5.123-5.043,7.0722v3.33c3.4706-2,5.1348-4.6386,5.041-7.2656l.0136.0118v-3.1484Z" class="colore57139 svgShape"></path><path fill="url(#D)" d="M1038.7096,933.1444c-5.75,3.3204-14.5586,3.795-21.2188,1.465v3.3262c6.6602,2.3338,15.4688,1.8554,21.2188-1.4688,3.3476-1.9316,5.0292-4.4688,5.0586-7.0078l.0058.0038v-3.375C1043.7642,928.6386,1042.0788,931.1992,1038.7096,933.1444Z"></path><path fill="#e5b639" d="M1051.5494,911.58a14.20914,14.20914,0,0,0-12.8398.002c-1.7148.9902-2.6622,2.3086-2.6622,3.705a3.31488,3.31488,0,0,0,.4708,1.666,5.82416,5.82416,0,0,1,2.1914-2.039,14.185,14.185,0,0,1,12.8398-.0058,5.71769,5.71769,0,0,1,2.1816,2.0448C1054.7858,915.127,1054.065,913.0332,1051.5494,911.58Z" class="colore57139 svgShape"></path><path fill="#ffd76e" d="M897.9986,981.0332c-.002-8.8418,5.8418-17.6934,17.5372-24.4454,11.6914-6.748,27.0194-10.127,42.3436-10.127,15.3224,0,30.6466,3.379,42.336,10.127,11.6934,6.752,17.539,15.5958,17.539,24.4454.006,8.8456-5.8398,17.6934-17.539,24.4452-11.6894,6.754-27.0098,10.127-42.334,10.127-15.3262,0-30.6464-3.373-42.3418-10.127C903.8462,998.7266,898.0006,989.8788,897.9986,981.0332Z" class="colorffcf6e svgShape"></path><path fill="url(#E)" d="M1000.2154,1005.4784c-11.6894,6.754-27.0098,10.127-42.334,10.127-15.3262,0-30.6464-3.373-42.3418-10.127-11.6934-6.7518-17.539-15.5996-17.541-24.4452v17.0664c.002,8.8476,5.8476,17.6952,17.541,24.4452,11.6954,6.752,27.0156,10.127,42.3418,10.127,15.3242,0,30.6446-3.375,42.334-10.125,11.6992-6.748,17.545-15.5996,17.539-24.4492V981.0332C1017.7604,989.8788,1011.9146,998.7266,1000.2154,1005.4784Z"></path><path fill="#ffd76d" d="M923.4928,1000.8866c9.496,5.4786,21.9434,8.2246,34.3886,8.2246,12.4434,0,24.8906-2.746,34.3808-8.2246,8.7638-5.0586,13.4728-11.5644,14.1466-18.1894-.6738-6.6192-5.3828-13.125-14.1466-18.1894-9.496-5.4824-21.9414-8.2226-34.3846-8.2226-12.4474,0-24.8888,2.7402-34.3888,8.2226-8.7598,5.0644-13.4648,11.5664-14.1464,18.1874C910.024,989.3184,914.729,995.8262,923.4928,1000.8866Z" class="colorffaf6d svgShape"></path><path fill="url(#F)" d="M923.4888,964.5078c9.5-5.4824,21.9414-8.2226,34.3888-8.2226,12.4432,0,24.8886,2.7402,34.3846,8.2226,8.7638,5.0644,13.4728,11.5702,14.1466,18.1894a15.29625,15.29625,0,0,0,.1016-1.664c0-7.1876-4.75-14.3712-14.2482-19.8496-9.496-5.4864-21.9414-8.2266-34.3846-8.2266-12.4474,0-24.8888,2.7402-34.3888,8.2266-9.494,5.4784-14.2382,12.662-14.2382,19.8496a15.76567,15.76567,0,0,0,.0918,1.662C910.024,976.0742,914.729,969.5722,923.4888,964.5078Z"></path><polygon fill="#e5b639" points="981.837 973.891 986.436 971.236 986.436 967.914 981.837 970.562 981.837 973.891" class="colore57139 svgShape"></polygon><path fill="#ffd76e" d="M960.6178,979.453c-1.713-.9882-2.6622-2.3066-2.6622-3.709,0-1.3964.9492-2.7148,2.6622-3.705a14.21332,14.21332,0,0,1,12.8418-.002c3.543,2.043,3.543,5.3732,0,7.416l5.8262,3.3614c5.7518-3.3164,6.5898-8.4042,2.5508-12.252l4.5996-2.6484-5.8302-3.3692-4.5976,2.6564c-6.6562-2.3302-15.4668-1.8438-21.2208,1.4784-3.2734,1.8828-5.0722,4.3946-5.0722,7.0644,0,2.674,1.8008,5.1856,5.0722,7.0704,3.545,2.0508,3.547,5.373,0,7.418a14.20531,14.20531,0,0,1-12.8436,0c-3.541-2.045-3.541-5.3672.0038-7.418l-5.8262-3.3614c-5.7538,3.3184-6.5918,8.4064-2.5526,12.25l-4.2422,2.4494,5.83,3.369,4.2442-2.455c6.6602,2.33,15.4688,1.8554,21.2168-1.4648C967.3716,989.6972,967.3716,983.3594,960.6178,979.453Z" class="colorffcf6e svgShape"></path><polygon fill="#fbcb4b" points="929.327 997.484 935.157 1000.846 935.157 997.521 929.327 994.152 929.327 997.484" class="colorfb944b svgShape"></polygon><polygon fill="#e5b639" points="935.157 1000.846 939.401 998.393 939.401 995.066 935.157 997.521 935.157 1000.846" class="colore57139 svgShape"></polygon><polygon fill="#fbcb4b" points="973.46 982.779 979.286 986.144 979.286 982.814 973.46 979.453 973.46 982.779" class="colorfb944b svgShape"></polygon><path fill="#e5b639" d="M941.9478,986.1444v-3.33c-2.5136,1.455-3.2362,3.5508-2.1816,5.373A5.77438,5.77438,0,0,1,941.9478,986.1444Z" class="colore57139 svgShape"></path><path fill="#fbcb4b" d="M931.063 986.3574l.0098 3.748.0078-.0078a6.40592 6.40592 0 00.7228 2.629l1.7656-1.0236a7.141 7.141 0 01-2.4922-5.3358zM954.7876 986.1406a5.7871 5.7871 0 012.1836 2.0468c1.0528-1.8222.3302-3.918-2.1836-5.373-3.2714-1.8848-5.0722-4.3964-5.0722-7.0704v3.3322C949.7154 981.744 951.5162 984.2578 954.7876 986.1406z" class="colorfb944b svgShape"></path><path fill="#fcc430" d="M965.6842,986.5116v-.0722h-.0058C965.6784,986.4628,965.6842,986.4844,965.6842,986.5116Z" class="colorfbba05 svgShape"></path><path fill="#e5b639" d="M984.3288,975.7422c.0116,2.5624-1.6584,5.123-5.043,7.0722v3.33c3.4706-2,5.1346-4.6386,5.041-7.2656l.0136.0118v-3.1484Z" class="colore57139 svgShape"></path><path fill="url(#G)" d="M960.6178,993.6016c-5.748,3.3202-14.5566,3.7948-21.2168,1.4648v3.3262c6.6602,2.334,15.4688,1.8554,21.2168-1.4668,3.3496-1.9336,5.0312-4.4708,5.0606-7.0098l.0058.0038v-3.375C965.6744,989.0956,963.987,991.6582,960.6178,993.6016Z"></path><path fill="#e5b639" d="M973.4596,972.037a14.21332,14.21332,0,0,0-12.8418.002c-1.713.9902-2.6622,2.3086-2.6622,3.705a3.31861,3.31861,0,0,0,.4728,1.6662,5.83264,5.83264,0,0,1,2.1894-2.0392,14.18919,14.18919,0,0,1,12.8418-.0058,5.74813,5.74813,0,0,1,2.1816,2.045C976.6958,975.584,975.9752,973.4922,973.4596,972.037Z" class="colore57139 svgShape"></path><path fill="url(#H)" style="mix-blend-mode:multiply" d="M720.1654,1133.5726c-12.78142-7.3792-29.77162-10.7832-46.461-10.2814H647.54418v4.2852a69.08958,69.08958,0,0,0-13.84178,5.9962c-23.787,13.832-23.65042,36.2558.291,50.08a69.78006,69.78006,0,0,0,13.55078,5.8748v4.4826h31.379c15.0878-.2578,30.0488-3.6796,41.52722-10.3496C744.2454,1169.8284,744.12618,1147.4046,720.1654,1133.5726Z"></path><path fill="#ffd76e" d="M587.93679,1142.3714c-.002-8.842,5.84179-17.6934,17.53719-24.4454,11.69142-6.748,27.01942-10.127,42.3436-10.127,15.3224,0,30.6466,3.379,42.336,10.127,11.6934,6.752,17.539,15.5958,17.539,24.4454.006,8.8456-5.8398,17.6934-17.539,24.4452-11.6894,6.754-27.0098,10.1268-42.334,10.1268-15.32618,0-30.6464-3.3728-42.3418-10.1268C593.7844,1160.0648,587.93879,1151.217,587.93679,1142.3714Z" class="colorffcf6e svgShape"></path><path fill="url(#I)" d="M690.15358,1166.8166c-11.6894,6.754-27.0098,10.1268-42.334,10.1268-15.32618,0-30.6464-3.3728-42.3418-10.1268-11.69338-6.7518-17.539-15.5996-17.541-24.4452v17.0664c.002,8.8476,5.84761,17.6952,17.541,24.4452,11.6954,6.752,27.01562,10.127,42.3418,10.127,15.3242,0,30.6446-3.375,42.334-10.125,11.6992-6.748,17.545-15.5996,17.539-24.4492v-17.0644C707.69858,1151.217,701.85278,1160.0648,690.15358,1166.8166Z"></path><path fill="#ffd76d" d="M613.431,1162.2248c9.496,5.4786,21.94342,8.2246,34.3886,8.2246,12.4434,0,24.8906-2.746,34.38082-8.2246,8.76378-5.0586,13.47278-11.5644,14.14658-18.1894-.6738-6.6192-5.3828-13.125-14.14658-18.1894-9.496-5.4826-21.94142-8.2226-34.38462-8.2226-12.44738,0-24.8888,2.74-34.3888,8.2226-8.7598,5.0644-13.4648,11.5664-14.1464,18.1874C599.96218,1150.6566,604.66718,1157.1644,613.431,1162.2248Z" class="colorffaf6d svgShape"></path><path fill="url(#J)" d="M613.427,1125.846c9.5-5.4826,21.94142-8.2226,34.3888-8.2226,12.4432,0,24.88862,2.74,34.38462,8.2226,8.76378,5.0644,13.47278,11.5702,14.14658,18.1894a15.29625,15.29625,0,0,0,.1016-1.664c0-7.1876-4.75-14.3712-14.24818-19.8496-9.496-5.4864-21.94142-8.2266-34.38462-8.2266-12.44738,0-24.8888,2.7402-34.3888,8.2266-9.494,5.4784-14.2382,12.662-14.2382,19.8496a15.76567,15.76567,0,0,0,.0918,1.662C599.96218,1137.4124,604.66718,1130.9104,613.427,1125.846Z"></path><polygon fill="#e5b639" points="671.775 1135.229 676.374 1132.574 676.374 1129.252 671.775 1131.901 671.775 1135.229" class="colore57139 svgShape"></polygon><path fill="#ffd76e" d="M650.556,1140.7912c-1.713-.9882-2.6622-2.3066-2.6622-3.709,0-1.3964.9492-2.7148,2.6622-3.705a14.21332,14.21332,0,0,1,12.8418-.002c3.543,2.043,3.543,5.3732,0,7.416l5.8262,3.3614c5.7518-3.3164,6.5898-8.4042,2.5508-12.252l4.59962-2.6484-5.83022-3.3692-4.5976,2.6564c-6.65618-2.3302-15.4668-1.844-21.2208,1.4784-3.27338,1.8828-5.0722,4.3946-5.0722,7.0644,0,2.674,1.80082,5.1856,5.0722,7.0704,3.545,2.0508,3.547,5.3728,0,7.418a14.20593,14.20593,0,0,1-12.8436,0c-3.541-2.0452-3.541-5.3672.0038-7.418l-5.8262-3.3614c-5.7538,3.3182-6.5918,8.4062-2.5526,12.25l-4.2422,2.4494,5.83,3.3688,4.2442-2.4548c6.66022,2.33,15.4688,1.8554,21.2168-1.4648C657.30978,1151.0354,657.30978,1144.6974,650.556,1140.7912Z" class="colorffcf6e svgShape"></path><polygon fill="#fbcb4b" points="619.265 1158.823 625.095 1162.184 625.095 1158.859 619.265 1155.491 619.265 1158.823" class="colorfb944b svgShape"></polygon><polygon fill="#e5b639" points="625.095 1162.184 629.339 1159.731 629.339 1156.405 625.095 1158.859 625.095 1162.184" class="colore57139 svgShape"></polygon><polygon fill="#fbcb4b" points="663.398 1144.117 669.224 1147.483 669.224 1144.153 663.398 1140.791 663.398 1144.117" class="colorfb944b svgShape"></polygon><path fill="#e5b639" d="M631.886,1147.4826v-3.33c-2.51358,1.4548-3.2362,3.5508-2.18158,5.3728A5.7738,5.7738,0,0,1,631.886,1147.4826Z" class="colore57139 svgShape"></path><path fill="#fbcb4b" d="M621.00118 1147.6954l.0098 3.748.0078-.0076a6.40592 6.40592 0 00.7228 2.629l1.7656-1.0236a7.141 7.141 0 01-2.4922-5.3358zM644.72578 1147.4788a5.787 5.787 0 012.18362 2.0466c1.05278-1.822.33018-3.918-2.18362-5.3728-3.27138-1.8848-5.0722-4.3964-5.0722-7.0704v3.3322C639.65358 1143.0822 641.4544 1145.596 644.72578 1147.4788z" class="colorfb944b svgShape"></path><path fill="#fcc430" d="M655.6224,1147.8498v-.0724h-.00582C655.61658,1147.801,655.6224,1147.8226,655.6224,1147.8498Z" class="colorfbba05 svgShape"></path><path fill="#e5b639" d="M674.267,1137.0804c.0116,2.5624-1.6584,5.123-5.043,7.0722v3.33c3.4706-2,5.1346-4.6386,5.041-7.2656l.0136.0118v-3.1484Z" class="colore57139 svgShape"></path><path fill="url(#K)" d="M650.556,1154.9398c-5.748,3.3202-14.55658,3.7948-21.2168,1.4648v3.3262c6.66022,2.334,15.4688,1.8554,21.2168-1.4668,3.3496-1.9336,5.0312-4.4708,5.0606-7.0098l.00582.0038v-3.375C655.61258,1150.4338,653.92518,1152.9964,650.556,1154.9398Z"></path><path fill="#e5b639" d="M663.39778,1133.3752a14.21332,14.21332,0,0,0-12.8418.002c-1.713.9902-2.6622,2.3086-2.6622,3.705a3.31861,3.31861,0,0,0,.4728,1.6662,5.83264,5.83264,0,0,1,2.1894-2.0392,14.18919,14.18919,0,0,1,12.8418-.0058,5.74834,5.74834,0,0,1,2.18162,2.045C666.634,1136.9222,665.9134,1134.8304,663.39778,1133.3752Z" class="colore57139 svgShape"></path><path fill="url(#L)" style="mix-blend-mode:multiply" d="M1058.0084,911.9336c-12.7812-7.379-29.7714-10.7832-46.461-10.2812H985.8462c-.16.1406-.3046.285-.4608.4256v3.8594c-1.715.541-3.3828,1.1544-5.0234,1.7988a22.44465,22.44465,0,0,0-4.2736,12.84c.002,8.8456,5.8478,17.6932,17.541,24.4452,11.6954,6.754,27.0176,10.127,42.3418,10.127,13.2286,0,26.4434-2.5274,37.334-7.5606C1079.819,935.4102,1074.7232,921.582,1058.0084,911.9336Z"></path><path fill="url(#M)" style="mix-blend-mode:multiply" d="M1015.8404,972.371c-2.582-5.7812-7.7812-11.2538-15.625-15.7832-11.6894-6.748-27.0136-10.127-42.336-10.127-.5898,0-1.1796.0392-1.7694.049,2.7616,5.6776,7.996,11.041,15.7266,15.5038a69.77389,69.77389,0,0,0,13.5488,5.877v4.4804Z"></path><path fill="#ffd76e" d="M925.7798,920.7324c-.0018-8.8418,5.8418-17.6934,17.5372-24.4454,11.6914-6.748,27.0176-10.1268,42.3418-10.1268,15.3222,0,30.6484,3.3788,42.336,10.1268,11.6932,6.752,17.541,15.5958,17.541,24.4454.0058,8.8456-5.8418,17.6952-17.541,24.4452-11.6876,6.754-27.0098,10.127-42.334,10.127s-30.6446-3.373-42.34-10.127C931.6256,938.4276,925.7818,929.578,925.7798,920.7324Z" class="colorffcf6e svgShape"></path><path fill="url(#N)" d="M1027.9948,945.1776c-11.6876,6.754-27.0098,10.127-42.334,10.127s-30.6446-3.373-42.34-10.127c-11.6952-6.75-17.539-15.5996-17.541-24.4452v17.0664c.002,8.8476,5.8458,17.6972,17.541,24.4452,11.6954,6.752,27.0158,10.127,42.34,10.127s30.6464-3.375,42.334-10.125c11.6992-6.748,17.5468-15.5996,17.541-24.4492V920.7324C1045.5416,929.578,1039.694,938.4276,1027.9948,945.1776Z"></path><path fill="#ffd76d" d="M951.274,940.5858c9.4962,5.4786,21.9434,8.2248,34.3868,8.2248,12.4452,0,24.8906-2.7462,34.3828-8.2248,8.7636-5.0566,13.4706-11.5644,14.1444-18.1874-.6738-6.621-5.3808-13.127-14.1444-18.1914-9.4962-5.4824-21.9414-8.2226-34.3868-8.2226-12.4452,0-24.8886,2.7402-34.3886,8.2226-8.7578,5.0644-13.4648,11.5664-14.1466,18.1894C937.8034,929.0176,942.5104,935.5274,951.274,940.5858Z" class="colorffaf6d svgShape"></path><path fill="url(#O)" d="M951.2682,904.207c9.5-5.4824,21.9434-8.2226,34.3886-8.2226,12.4454,0,24.8906,2.7402,34.3868,8.2226,8.7636,5.0644,13.4706,11.5704,14.1444,18.1914a15.36363,15.36363,0,0,0,.1016-1.666c0-7.1876-4.748-14.3692-14.246-19.8496-9.4962-5.4844-21.9414-8.2266-34.3868-8.2266-12.4452,0-24.8886,2.7422-34.3886,8.2266-9.4922,5.4804-14.2384,12.662-14.2384,19.8496a15.83316,15.83316,0,0,0,.0918,1.664C937.8034,915.7734,942.5104,909.2714,951.2682,904.207Z"></path><polygon fill="#e5b639" points="1009.616 913.59 1014.215 910.936 1014.215 907.613 1009.616 910.264 1009.616 913.59" class="colore57139 svgShape"></polygon><path fill="#ffd76e" d="M988.399,919.1524c-1.7148-.9864-2.662-2.3068-2.662-3.709,0-1.3966.9472-2.713,2.662-3.7052a14.22574,14.22574,0,0,1,12.8418-.002c3.541,2.043,3.541,5.3732,0,7.4162l5.8262,3.3612c5.75-3.3144,6.5878-8.4042,2.5488-12.25l4.5996-2.6504-5.83-3.3692-4.5978,2.6564c-6.6562-2.3302-15.4668-1.8438-21.2186,1.4784-3.2754,1.8848-5.0742,4.3946-5.0742,7.0646,0,2.6738,1.8006,5.1874,5.0742,7.0702,3.5448,2.0528,3.5468,5.373,0,7.418a14.20992,14.20992,0,0,1-12.8458,0c-3.539-2.045-3.539-5.3652.004-7.418l-5.8262-3.3612c-5.752,3.3182-6.5898,8.4062-2.5508,12.25l-4.2422,2.4492,5.8282,3.369,4.246-2.455c6.6602,2.332,15.4668,1.8554,21.2168-1.4648C995.151,929.3984,995.151,923.0586,988.399,919.1524Z" class="colorffcf6e svgShape"></path><polygon fill="#fbcb4b" points="957.108 937.184 962.936 940.545 962.936 937.221 957.108 933.852 957.108 937.184" class="colorfb944b svgShape"></polygon><polygon fill="#e5b639" points="962.936 940.545 967.182 938.094 967.182 934.766 962.936 937.221 962.936 940.545" class="colore57139 svgShape"></polygon><polygon fill="#fbcb4b" points="1001.241 922.478 1007.067 925.844 1007.067 922.514 1001.241 919.152 1001.241 922.478" class="colorfb944b svgShape"></polygon><path fill="#e5b639" d="M969.7272,925.8438v-3.3302c-2.5118,1.4552-3.2364,3.5528-2.1798,5.373A5.78256,5.78256,0,0,1,969.7272,925.8438Z" class="colore57139 svgShape"></path><path fill="#fbcb4b" d="M958.8444 926.0566l.0078 3.748.0078-.0078a6.408 6.408 0 00.7246 2.629l1.7656-1.0234a7.14568 7.14568 0 01-2.4942-5.336zM982.569 925.8398a5.79648 5.79648 0 012.1816 2.0468c1.0546-1.8202.332-3.9178-2.1816-5.373-3.2736-1.8828-5.0742-4.3964-5.0742-7.0702v3.332C977.4948 921.4434 979.2954 923.957 982.569 925.8398z" class="colorfb944b svgShape"></path><path fill="#fcc430" d="M993.4634,926.2108v-.0722h-.0058C993.4576,926.164,993.4634,926.1836,993.4634,926.2108Z" class="colorfbba05 svgShape"></path><path fill="#e5b639" d="M1012.11,915.4414c.0098,2.5624-1.6602,5.125-5.043,7.0722v3.3302c3.4706-2,5.1348-4.6388,5.041-7.2658l.0118.0118v-3.1484Z" class="colore57139 svgShape"></path><path fill="url(#P)" d="M988.399,933.3008c-5.75,3.3202-14.5566,3.7968-21.2168,1.4648v3.3282c6.6602,2.3338,15.4668,1.8534,21.2168-1.4688,3.3496-1.9316,5.0294-4.4708,5.0586-7.0098l.0058.0038v-3.375C993.4538,928.7968,991.7682,931.3574,988.399,933.3008Z"></path><path fill="#e5b639" d="M1001.2408,911.7362a14.22574,14.22574,0,0,0-12.8418.002c-1.7148.9922-2.662,2.3086-2.662,3.7052a3.31821,3.31821,0,0,0,.4726,1.666,5.8055,5.8055,0,0,1,2.1894-2.0392,14.183,14.183,0,0,1,12.8418-.0038,5.72094,5.72094,0,0,1,2.1796,2.043C1004.4772,915.2832,1003.7544,913.1914,1001.2408,911.7362Z" class="colore57139 svgShape"></path><path fill="url(#Q)" style="mix-blend-mode:multiply" d="M1184.5514,934.125c-9.7442-7.381-22.7012-10.7832-35.422-10.2812h-19.9492v4.289a47.164,47.164,0,0,0-10.5488,5.9922c-18.1406,13.834-18.037,36.2538.2188,50.082a47.80648,47.80648,0,0,0,10.33,5.873v4.4806h23.9258c11.498-.254,22.9122-3.6758,31.6622-10.3458C1202.9108,970.3788,1202.819,947.959,1184.5514,934.125Z"></path><path fill="url(#R)" d="M1160.2936,918.953a58.59241,58.59241,0,0,0-22.4552-14.0058c-13.8652-4.8144-28.998-4.5058-40.1152,1.9512a27.54294,27.54294,0,0,0-11.961,13.2656l-5.2402,12.6836a27.56226,27.56226,0,0,1,11.963-13.2636c7.2324-4.207,16.1738-5.8028,25.3516-5.082a59.8563,59.8563,0,0,1,37.2168,17.1308c11.2714,11.459,14.5428,25.3008,10.0136,36.2676l5.2344-12.6836C1174.8366,944.248,1171.565,930.4082,1160.2936,918.953Z"></path><path fill="#ffd76d" d="M1158.8952,922.332c16.707,16.9746,15.832,39.1954-1.9552,49.5292-17.7812,10.3322-45.8418,4.9318-62.5546-12.0428-16.715-16.9884-15.838-39.2072,1.9434-49.541C1114.1158,899.9434,1142.1764,905.3418,1158.8952,922.332Z" class="colorffaf6d svgShape"></path><path fill="url(#S)" d="M1180.0866,959.2382q-2.6163,6.3429-5.2384,12.6876a33.941,33.941,0,0,1-14.7538,16.3476c-21.924,12.7364-56.4004,6.0996-76.9982-14.8242-13.8886-14.1172-17.9218-31.127-12.3514-44.6094h0q2.622-6.3456,5.2382-12.6894c-5.5684,13.4902-1.5372,30.498,12.3574,44.6172,20.5938,20.9238,55.0722,27.5586,76.9922,14.8202A33.928,33.928,0,0,0,1180.0866,959.2382Z"></path><path fill="#ffd76e" d="M1167.733,914.625c20.5918,20.9258,19.5274,48.2188-2.4004,60.9628-21.92,12.7384-56.3984,6.1036-76.9922-14.8202-20.6016-20.9356-19.5196-48.2286,2.3984-60.965C1112.6704,887.0606,1147.1294,893.6914,1167.733,914.625Zm-71.9512,41.8124c16.711,16.9766,44.7716,22.377,62.5566,12.045,17.7872-10.334,18.6622-32.5548,1.9552-49.5294-16.7208-16.9842-44.7832-22.3906-62.5704-12.0546-17.7832,10.3398-18.6582,32.5566-1.9414,49.539Z" class="colorffcf6e svgShape"></path><path fill="#fbcb4b" d="M1102.4088 948.3866l2.4258-1.414a11.31594 11.31594 0 01-1.4668-10.0742l-1.3828 3.3086h.0116A10.72955 10.72955 0 001102.4088 948.3866zM1123.6744 942.7968a7.2133 7.2133 0 012.2832 5.1074c2.1094-2.1952 1.8476-5.703-.8906-8.4784-2.961-3.0118-4.5216-6.5488-4.379-9.959a9.5371 9.5371 0 01.8146-3.5234l-.004-.002-1.3242 3.2168.0118-.002a9.41377 9.41377 0 00-.8946 3.6856C1119.147 936.2598 1120.7096 939.793 1123.6744 942.7968z" class="colorfb944b svgShape"></path><path fill="#e5b639" d="M1113.0904 937.1094a5.08185 5.08185 0 00-2.67 4.3768 5.87119 5.87119 0 011.2736-1zM1150.897 928.6054a13.98842 13.98842 0 011.0352 1.9668l1.9864-1.1582 1.3984-3.3788z" class="colore57139 svgShape"></path><polygon fill="#fbcb4b" points="1142.645 938.467 1141.251 941.846 1146.508 947.189 1147.903 943.809 1142.645 938.467" class="colorfb944b svgShape"></polygon><path fill="#e5b639" d="M1147.903,943.8086l-1.3946,3.3808a10.016,10.016,0,0,0,4.293-4.6934h0l.0078-.0136c.0078-.0196.0156-.043.0254-.0626l1.3788-3.3358A10.01679,10.01679,0,0,1,1147.903,943.8086Z" class="colore57139 svgShape"></path><path fill="#ffd76e" d="M1155.317,926.0352l-4.42,2.5702c3.5664,5.6466,2.5254,11.9962-2.994,15.2032l-5.2578-5.3418c3.4042-1.9746,3.5742-6.2246.371-9.4786-3.205-3.2578-8.5742-4.289-11.9746-2.3086a5.06572,5.06572,0,0,0-2.6718,4.2638,7.15567,7.15567,0,0,0,2.2988,5.2246c6.0976,6.201,5.7754,14.3046-.713,18.0742-5.5292,3.2168-13.7694,2.2538-19.8672-1.9238l-4.08,2.373-5.2578-5.3418,4.084-2.377c-3.5742-5.6446-2.5332-11.9942,2.996-15.207l5.2598,5.3438c-3.412,1.9824-3.582,6.2304-.375,9.4882,3.1972,3.254,8.5664,4.2872,11.9786,2.2988,3.4062-1.9726,3.5742-6.2266.373-9.4706-2.961-3.0118-4.5216-6.5488-4.379-9.959a9.675,9.675,0,0,1,5.0938-8.1328c5.5196-3.211,13.7578-2.25,19.8516,1.9296l4.4238-2.5742Z" class="colorffcf6e svgShape"></path><polygon fill="#fbcb4b" points="1100.751 949.35 1099.354 952.727 1104.614 958.07 1106.008 954.691 1100.751 949.35" class="colorfb944b svgShape"></polygon><polygon fill="#e5b639" points="1106.008 954.691 1104.614 958.07 1108.698 955.699 1110.088 952.318 1106.008 954.691" class="colore57139 svgShape"></polygon><path fill="url(#T)" d="M1133.444,951.0116h0c-.006.002-.0078.004-.0078.0118a10.06681,10.06681,0,0,1-.8224,1.045,10.51169,10.51169,0,0,1-2.6582,2.1738c-5.5292,3.2168-13.7694,2.2538-19.8672-1.9238l-1.3906,3.3808c6.0938,4.1738,14.334,5.1328,19.8614,1.9218a10.05247,10.05247,0,0,0,4.1172-4.3594l.0058.0274,1.4336-3.455A9.46607,9.46607,0,0,1,1133.444,951.0116Z"></path><path fill="#e5b639" d="M1143.9342,937.455c2.0918-2.1934,1.8106-5.6934-.918-8.4668-3.205-3.2578-8.5742-4.289-11.9746-2.3086a5.06572,5.06572,0,0,0-2.6718,4.2638c0,.037.0018.0742.0018.1132a5.94533,5.94533,0,0,1,1.2736-1.002c3.4002-1.9766,8.7714-.9434,11.9784,2.3144a7.31577,7.31577,0,0,1,2.2832,4.9084Z" class="colore57139 svgShape"></path><polygon fill="url(#i)" style="mix-blend-mode:multiply" points="860.496 1228.755 754.884 1228.755 798.687 1254.827 754.884 1280.124 860.496 1280.124 904.964 1254.448 860.496 1228.755"></polygon><polygon fill="url(#U)" style="mix-blend-mode:multiply" points="971.029 1169.903 827.453 1169.903 887.002 1205.348 827.453 1239.738 971.029 1239.738 1031.483 1204.833 971.029 1169.903"></polygon><polygon fill="#b9d2e4" points="827.453 1239.738 887.002 1205.348 887.002 1065.78 827.453 1100.157 827.453 1239.738" class="colorb9bee4 svgShape"></polygon><polygon fill="#cce4f6" points="827.453 1239.738 767.902 1205.348 767.902 1065.78 827.453 1100.157 827.453 1239.738" class="colorccd1f6 svgShape"></polygon><polygon fill="#f4f6f9" points="827.453 1100.157 767.902 1065.78 827.453 1031.413 887.002 1065.78 827.453 1100.157" class="colorf4f4f9 svgShape"></polygon><polygon fill="url(#V)" style="mix-blend-mode:multiply" points="1006.939 1257.836 908.352 1257.836 949.241 1283.796 908.352 1308.983 1006.939 1308.983 1048.451 1283.418 1006.939 1257.836"></polygon><polygon fill="#b9d2e4" points="908.352 1308.983 949.241 1283.796 949.241 1181.575 908.352 1206.753 908.352 1308.983" class="colorb9bee4 svgShape"></polygon><polygon fill="#cce4f6" points="908.352 1308.983 867.46 1283.796 867.46 1181.575 908.352 1206.753 908.352 1308.983" class="colorccd1f6 svgShape"></polygon><polygon fill="#f4f6f9" points="908.352 1206.753 867.46 1181.575 908.352 1156.405 949.241 1181.575 908.352 1206.753" class="colorf4f4f9 svgShape"></polygon><polygon fill="#b9d2e4" points="754.884 1280.124 798.687 1254.827 798.687 1182.44 754.884 1207.728 754.884 1280.124" class="colorb9bee4 svgShape"></polygon><polygon fill="#cce4f6" points="754.884 1280.124 711.08 1254.827 711.08 1182.44 754.884 1207.728 754.884 1280.124" class="colorccd1f6 svgShape"></polygon><polygon fill="#f4f6f9" points="754.884 1207.728 711.08 1182.44 754.884 1157.161 798.687 1182.44 754.884 1207.728" class="colorf4f4f9 svgShape"></polygon><path fill="#fbcb4b" d="M807.50718,458.92442v-16.1472c-17.274-9.9741-30.3-31.9905-30.3-51.2078v-65.7015l41.0818,23.716v-16.1456l-55.0674-31.7934v81.849C763.22158,411.45032,782.67318,444.58822,807.50718,458.92442Z" class="colorfb944b svgShape"></path><polygon fill="#ffd76d" points="763.222 301.645 777.207 293.57 832.275 325.364 818.289 333.438 763.222 301.645" class="colorffaf6d svgShape"></polygon><path fill="#c89d2b" d="M791.19,333.94232v49.5516c0,19.22,13.029,41.238,30.3058,51.2105l-13.9886,8.0728c-17.274-9.9741-30.3-31.9905-30.3-51.2078v-65.7015Z" class="colorc85a2b svgShape"></path><path fill="url(#W)" style="mix-blend-mode:multiply" d="M917.3738,718.4668c33.5096-19.354,87.852-19.354,121.3616,0,33.5156,19.345,33.5156,50.71721,0,70.065-33.5096,19.34661-87.852,19.34661-121.3616,0C883.8612,769.184,883.8612,737.8118,917.3738,718.4668Z"></path><path fill="#ffffff" d="M891.8634,701.742c33.5154-19.3524,87.8518-19.3524,121.3674,0,33.5158,19.3512,33.5158,50.7232,0,70.06979-33.5156,19.34661-87.8488,19.34661-121.3674,0C858.3566,752.46521,858.3566,721.09321,891.8634,701.742Z" class="colorfff svgShape"></path><path fill="url(#X)" style="mix-blend-mode:multiply" d="M952.553,761.4h74.474c14.1962-14.3028,15.0356-31.807,2.5268-46.486H952.553Z"></path><path fill="url(#Y)" d="M1013.2308,771.8118c-33.5156,19.34661-87.8488,19.34661-121.3674,0-16.7534-9.67619-25.1346-22.35619-25.1346-35.03479h0v16.7186c0,12.68,8.3812,25.3678,25.1346,35.03619,33.5186,19.34661,87.8518,19.34661,121.3674,0,16.7592-9.66839,25.1374-22.35619,25.1374-35.03619V736.777C1038.3682,749.45561,1029.99,762.13561,1013.2308,771.8118Z"></path><path fill="#ffd76d" d="M922.3978,702.64761c16.6508-9.61181,43.6538-9.61181,60.3018,0,16.6508,9.61319,16.6508,25.20819,0,34.8136-16.648,9.6132-43.651,9.6132-60.3018,0C905.7466,727.84821,905.7466,712.2608,922.3978,702.64761Z" class="colorffaf6d svgShape"></path><path fill="url(#Z)" style="mix-blend-mode:multiply" d="M952.553,732.3608h36.879c7.6412-7.62919,7.611-17.09339-.0934-24.69979H952.553Z"></path><path fill="url(#j)" d="M982.6996,737.46121c-16.648,9.6132-43.651,9.6132-60.3018,0-8.3242-4.8086-12.4848-11.1022-12.4848-17.4062h0v16.722h0c0,6.30379,4.1606,12.6002,12.4848,17.4046,16.6508,9.6174,43.6538,9.6174,60.3018,0,8.3238-4.8044,12.4874-11.10081,12.4874-17.4046V720.055C995.187,726.359,991.0234,732.65261,982.6996,737.46121Z"></path><path fill="url(#aa)" d="M931.23,642.1968V720.055h0c0,3.14679,2.0818,6.2966,6.2484,8.7016,8.321,4.806,21.8224,4.806,30.1434,0,4.1634-2.405,6.2422-5.55481,6.2422-8.7016V642.1968Z"></path><path fill="url(#ab)" style="mix-blend-mode:multiply" d="M931.23,658.893c0,3.14979,2.0818,6.298,6.2484,8.703,8.321,4.806,21.8224,4.806,30.1434,0,4.1634-2.405,6.2422-5.55321,6.2422-8.703V642.1968H931.23Z"></path><path fill="url(#ac)" d="M1135.5068,388.04692H769.58718C769.58718,517.1218,859.542,654.498,952.553,654.498h0C1045.558,654.498,1135.5068,517.1218,1135.5068,388.04692Z"></path><path fill="#ffd76d" d="M823.1834,313.35492c71.4444-41.25,187.2888-41.25,258.7334.003,71.4504,41.2485,71.4504,108.1324.0028,149.3837-71.4442,41.24879-187.2918,41.24879-258.7362,0C751.72678,421.49032,751.72678,354.60642,823.1834,313.35492Z" class="colorffaf6d svgShape"></path><path fill="url(#ad)" d="M833.508,319.32192c65.7468-37.9605,172.3374-37.9605,238.078,0,65.75,37.9544,65.753,99.5.0032,137.45588-65.7408,37.95761-172.3316,37.95761-238.0782,0C767.76418,418.81772,767.76418,357.27632,833.508,319.32192Z"></path><path fill="#c89d2b" d="M1115.5558,622.2668l1.7568-9.29579s11.7022-11.302,11.7022-19.0258v-81.8506h0l13.9918-8.0756V585.8708c0,13.11021-4.302,22.39081-11.4044,27.10021h.027Z" class="colorc85a2b svgShape"></path><path fill="#fbcb4b" d="M1084.7294,618.24041c24.8338,14.336,44.2854,3.66539,44.2854-24.2952v-81.8506l-55.0672-31.79481v16.147l41.0876,23.72221V585.8708c0,19.22-13.0318,26.195-30.3058,16.21921Z" class="colorfb944b svgShape"></path><polygon fill="#ffd76d" points="1073.948 480.3 1087.933 472.227 1143.007 504.019 1129.015 512.095 1073.948 480.3" class="colorffaf6d svgShape"></polygon><path fill="#ffd76d" d="M1112.406,598.4878c-4.6268,9.07881-14.9964,10.92161-27.6766,3.60221l13.9858-8.0774C1103.7148,596.89921,1108.3388,598.325,1112.406,598.4878Z" class="colorffaf6d svgShape"></path><rect style="mix-blend-mode:multiply" width="99.159" height="18.228" x="666.857" y="1014.309" fill="url(#k)"></rect><rect style="mix-blend-mode:multiply" width="99.147" height="18.219" x="621.667" y="988.015" fill="url(#ae)"></rect><path fill="url(#l)" d="M611.20158,1000.615c0-14.313,9.074-14.7318,9.074-14.7318s4.9094,0,12.894-3.3122c7.8754-3.2702,18.9744-2.0064,12.7696,9.436a2.84314,2.84314,0,0,1-.2106.4236,5.58769,5.58769,0,0,1-2.0098,1.7638l-19.8266,11.632C620.86778,1007.5466,611.2704,1003.5606,611.20158,1000.615Z"></path><path fill="#102b47" d="M611.25718,999.3332c.1684,2.9356,9.6388,6.8516,12.635,5.1376l19.8266-11.6224a18.86087,18.86087,0,0,0,2.7914-2.0364c-.17978.3912-.3386.7702-.571,1.195a2.84314,2.84314,0,0,1-.2106.4236,5.58769,5.58769,0,0,1-2.0098,1.7638l-19.8266,11.632c-2.8296,1.615-11.431-1.7818-12.5664-4.6464a3.22442,3.22442,0,0,1-.0886-.577A8.78352,8.78352,0,0,1,611.25718,999.3332Z" class="color121047 svgShape"></path><path fill="#ffffff" d="M614.89118,984.0026c2.33822,0,10.56,2.092,10.56,2.092a4.52621,4.52621,0,0,0,.73822,2.1292c.08018.0882.15338.1824.22938.2802,1.6204,1.1262,3.2724,2.9104-.57838,5.3246a5.34426,5.34426,0,0,1-6.93322-.4902,6.28231,6.28231,0,0,0-2.2366-2.5408,5.6002,5.6002,0,0,0-2.14218-.9018,1.25035,1.25035,0,0,0-.01682-.1968S613.91218,984.0026,614.89118,984.0026Z" class="colorfff svgShape"></path><path fill="#112c47" d="M615.81958,844.033c8.967.1654,30.2942.5492,39.2516.705-3.33278,26.94439-10.0474,51.41419-14.52778,77.51479-4.814,25.3594-10.23582,43.1864-14.969,64.2896-1.73362,3.9256-9.66262,2.442-11.26622-1.34-1.2526-19.4372-2.701-43.114,3.063-65.5448C616.40978,895.487,613.17278,872.1592,615.81958,844.033Z" class="color131147 svgShape"></path><path fill="url(#af)" d="M656.39658,1026.9198c0-14.3154,9.071-14.7308,9.071-14.7308s4.9094,0,12.89582-3.3098c7.86938-3.2726,18.97258-2.01,12.77158,9.43a4.12587,4.12587,0,0,1-.2144.4262,5.552,5.552,0,0,1-2.017,1.7624l-19.8194,11.6308C666.05918,1033.851,656.46358,1029.8676,656.39658,1026.9198Z"></path><path fill="#102b47" d="M656.445,1025.6342c.172,2.9368,9.6448,6.854,12.6392,5.1374l19.8194-11.616a19.008,19.008,0,0,0,2.79882-2.0414c-.18662.3924-.33762.7714-.56742,1.195a4.12587,4.12587,0,0,1-.2144.4262,5.552,5.552,0,0,1-2.017,1.7624l-19.8194,11.6308c-2.8252,1.6162-11.431-1.7806-12.5644-4.6354a2.71918,2.71918,0,0,1-.08638-.5866A9.59514,9.59514,0,0,1,656.445,1025.6342Z" class="color121047 svgShape"></path><path fill="#ffffff" d="M660.0844,1010.3024c2.33158,0,10.55878,2.0932,10.55878,2.0932a4.66612,4.66612,0,0,0,.7298,2.133c.087.0916.1556.1822.2306.2776,1.62782,1.1274,3.281,2.9092-.5748,5.3284a5.34537,5.34537,0,0,1-6.92938-.489,6.39439,6.39439,0,0,0-2.23382-2.541,5.74749,5.74749,0,0,0-2.1474-.9054,1.36368,1.36368,0,0,0-.0206-.1884S659.10358,1010.3024,660.0844,1010.3024Z" class="colorfff svgShape"></path><path fill="url(#ag)" d="M643.18458,908.086c-2.4506-11.5788-33.1708-13.3678-27.449-58.5642,8.8694-1.306,52.1994,19.6836,61.06282,18.3774,1.10758,27.1208-1.51122,52.369-1.67782,78.8404-.603,25.8024-3.0426,44.2728-4.2668,65.8696-1.0646,4.1634-9.1276,3.9884-11.33238.5238-4.40982-18.9748-9.703-42.1034-7.67982-65.1682C649.20218,935.1874,646.05578,921.6518,643.18458,908.086Z"></path><path fill="#3e55af" d="M618.55358,782.899c-2.7486-9.1308-5.3488-42.08921-4.63418-50.5524.71218-8.4656,12.47878-47.2652,12.47878-47.2652,3.095,1.56739,8.7548,4.0348,8.7548,4.0348-1.2282,5.3234-8.59958,38.5348-8.7724,45.1244-.1726,6.5886,2.18982,30.794,4.9156,33.4086C634.0224,770.26141,618.55358,782.899,618.55358,782.899Z" class="color423eaf svgShape"></path><path fill="url(#ah)" d="M697.74578,715.661c-1.5608,7.226-7.7292,29.9244-13.0378,41.625-2.5704,5.6652-10.8098,13.31-16.8188,17.9512a6.948,6.948,0,0,1-7.8216.4478c-2.1826-1.3-4.671-2.98521-7.32-4.90821-6.3694-4.622-10.833-9.19939-13.87318-9.47579-25.09082-2.2466-23.84742,38.1694-24.807,89.15279,3.28878,12.181,11.40378,19.2778,20.79218,23.2422,19.0606,8.0478,37.8316,5.9606,42.8406-7.13059-4.9836-22.7714-8.9226-40.72261-6.78478-63.31661a86.50982,86.50982,0,0,0,27.116-38.21659c5.81758-17.2438,8.89578-42.11341,9.24838-46.5398C707.27978,718.49241,703.246,717.24121,697.74578,715.661Z"></path><path fill="#a9cafc" d="M624.48418,767.6228c3.992-5.25839,4.1454-12.81739,3.377-18.09019a26.0503,26.0503,0,0,1-1.553-9.097c.0744-11.7284,7.611-21.8092,16.7598-21.114,18.4306,1.38719,15.0856,11.06519,15.009,22.78719-.073,10.86541-5.04758,18.30981-13.29658,19.518-.00962,1.78421,2.39358,4.32061,4.48878,6.51021-4.7066,5.2124-13.6146,6.143-17.3944,5.6566C627.848,773.26961,622.8364,770.841,624.48418,767.6228Z" class="colorfcd1a9 svgShape"></path><path fill="#112d49" d="M650.02178,713.16521c-.5306-1.4316-3.37138-2.2186-12.6532,2.019-.0548.03259-2.249,1.0418-2.3866,1.1148-17.1164,8.6702-11.6318,28.6814-8.678,33.91079a10.87333,10.87333,0,0,1,1.7702,6.29521c6.8964-.7026,9.3156,3.0492,13.5054-1.09621,3.0016-2.96579,7.55382-6.50879,8.2696-7.91859a5.38706,5.38706,0,0,0,.4424-3.3932c-.571-9.72,4.28-4.0548,4.2624-1.8168,1.7836-1.0056,1.42742-4.9058,1.0362-9.237h0C669.8334,720.996,661.35858,713.80861,650.02178,713.16521Z" class="color121149 svgShape"></path><path fill="#a9cafc" d="M698.70978 715.9388c.4074-1.34659.5534-3.91719-.579-5.15879-1.134-1.2416-2.4728-7.4788 1.1608-8.433-.1316-1.17221 2.5652-3.96921 6.6934-1.605 4.1278 2.366 5.4172 6.2664 4.32942 8.7596-1.08822 2.4946-3.60742 6.6018-3.97862 8.7016C704.96558 717.78741 698.70978 715.9388 698.70978 715.9388zM627.28478 685.52021c.53062-1.9062-1.1722-7.31241.1208-9.8882 1.291-2.5786 3.3184-5.1184 6.7774-3.55921 3.4602 1.557 4.6668 3.63521 4.38742 5.47841a3.85932 3.85932 0 01-.711 5.6644c-2.447 1.9774-3.20082 2.983-3.80082 5.4176C632.76158 688.0568 627.28478 685.52021 627.28478 685.52021z" class="colorfcd1a9 svgShape"></path><path fill="#3e55af" d="M1346.2036,615.6248a14.9845,14.9845,0,0,1,1.133-6.05279c-5.6866-.6258-9.701,3.4792-9.701,11.00079,0,9.89021,6.944,21.91521,15.5064,26.86121,6.5112,3.75679,12.075,2.3322,14.3692-2.9056a15.04421,15.04421,0,0,1-5.8074-2.0424C1353.142,637.542,1346.2036,625.5168,1346.2036,615.6248Z" class="color423eaf svgShape"></path><path fill="url(#ai)" d="M1384.9492,611.15561c-12.8362-22.2274-33.6426-34.2562-46.4886-26.8392l-8.564,4.946c12.84-7.4152,33.6524,4.6122,46.4884,26.84539,12.8258,22.21481,12.832,46.225.0242,53.656l8.54-4.926C1397.7912,657.4248,1397.783,633.39261,1384.9492,611.15561Z"></path><path fill="#526bcc" d="M1376.385,616.1078c-12.836-22.23319-33.6484-34.26059-46.4884-26.84539-12.8422,7.409-12.8422,31.4432,0,53.68039l23.2432,40.25661,23.2452-13.41561C1389.221,662.3748,1389.217,638.3428,1376.385,616.1078ZM1353.142,647.434c-8.5624-4.946-15.5064-16.971-15.5064-26.86121,0-9.894,6.944-13.90059,15.5064-8.95839,8.5618,4.944,15.5042,16.971,15.5042,26.86539C1368.6462,648.36561,1361.7038,652.376,1353.142,647.434Z" class="color5652cc svgShape"></path><path fill="url(#aj)" style="mix-blend-mode:multiply" d="M1412.4601,664.224c-17.2707,0-25.9937.7206-36.0509,5.53979l-23.2694,13.43561,58.2844,11.22039Z"></path><path fill="#cee6f8" d="M918.0876,206.74012c1.2498-2.5057,9.3934-10.4394,9.3934-10.4394,4.3886,3.3412,11.9052,19.6284-2.0882,32.7842C927.481,221.77592,922.994,211.64972,918.0876,206.74012Z" class="colorced3f8 svgShape"></path><path fill="#ffd66b" d="M819.921,763.02341c3.60222,5.1326,14.27442,15.1296,5.27962,26.09139,3.0068.87221,10.8526,4.818,10.8526,4.818,6.7682-6.06759,15.3312-21.422-.017-40.05139C829.8428,757.15661,819.921,763.02341,819.921,763.02341Z" class="colorffc16b svgShape"></path><path fill="#526bcc" d="M1022.3106,259.42492c.9394-5.7955,1.0944-21.7705,17.0714-22.8668-.4696-1.7217-4.1808-5.4307-4.1808-5.4307-9.603.4195-22.6028,5.4307-22.4474,24.8503A70.60555,70.60555,0,0,0,1022.3106,259.42492Z" class="color5652cc svgShape"></path><path fill="#7dbcfb" d="M1191.4298,578.27261c-2.1932,2.193-7.9842,11.1168-24.5862,14.87819,2.0382,4.69661,9.3976,16.602,9.3976,16.602,4.6966-2.03819,19.73-18.795,21.9232-24.58839C1195.9712,582.53741,1191.4298,578.27261,1191.4298,578.27261Z" class="color807dfb svgShape"></path><path fill="#526bcc" d="M776.9174,233.01342c3.28238-1.609,15.11378-7.1615,22.07038-18.6383,5.1834,3.1216,8.459,8.205,4.5508,13.258-3.6888,4.7682-11.0308,12.4162-11.0308,12.4162C788.90858,238.27842,784.40878,238.00832,776.9174,233.01342Z" class="color5652cc svgShape"></path><path fill="#ffd76d" d="M1130.4586,304.86712l7.0638-2.5157c.9954,3.4139,2.4006,11.2337,16.433,12.9797-3.1748,4.284-11.9784,10.8553-11.9784,10.8553C1137.1578,322.81342,1132.4632,313.40442,1130.4586,304.86712Z" class="colorffaf6d svgShape"></path><path fill="#526bcc" d="M847.2506,341.99832l-2.7926-2.1784c.8408-1.08,1.8242-2.3045,2.8598-3.5875,1.5244-1.8975,3.185-3.963,4.6108-5.8415-.1784-.0356-.3524-.065-.5138-.0966-2.709-.4862-6.4182-1.1594-4.8246-5.4744.8974-2.4362,3.1808-5.1558,6.3028-8.7348.0252-.0274.0524-.0568.0754-.0862-1.6584-1.2998-4.1976-3.277-4.663-3.6356a1.5543,1.5543,0,0,1-.434-1.5222,4.53156,4.53156,0,0,1,.9876-2.0758c1.8346-2.256,3.6922-4.6692,5.4912-7.003.2874-.3774.5786-.7506.866-1.1259-.067-.0483-.1342-.0943-.1994-.1427a24.0443,24.0443,0,0,1-3.3482-2.7006c-2.3106-2.367.0168-5.5164,1.7192-7.8187l.197-.2683a38.07392,38.07392,0,0,1,2.4678-2.9228c.4446-.4906,1.061-1.1742,1.407-1.6209a1.762,1.762,0,0,0-.2118-.1821c-1.0504-.7632-2.0694-1.5769-3.0862-2.3902-.5054-.4027-1.0106-.8052-1.5202-1.2057a1.52412,1.52412,0,0,1-.436-1.4781,4.42361,4.42361,0,0,1,.9244-2.0299l8.3324-10.6785,2.7948,2.1825-6.4514,8.2655c.0504.0398.1006.0798.151.1215.9938.7927,1.9876,1.5853,3.0152,2.3359a3.15931,3.15931,0,0,1,1.2266,3.3881c-.4258,2.2857-2.2456,4.2943-3.8518,6.0639-.646.7148-1.3148,1.453-1.797,2.105l-.2014.2726c-.2662.3605-.5742.7778-.7964,1.0988.0292.0314.0606.0712.1004.1087a22.17282,22.17282,0,0,0,3.0674,2.4597c.5724.4088,1.1448.8136,1.69,1.2433.7716.6017.5516,2.1723-.4884,3.5099q-1.3683,1.752-2.734,3.533c-1.2058,1.564-2.4344,3.164-3.6842,4.7448.564.4383,1.2266.9562,1.8768,1.4616l1.9834,1.5492c1.0736.843,2.1826,1.7154.5054,4.0405-.04.0547-.084.111-.1258.1657-.6436.824-1.5098,1.8178-2.4282,2.8683a52.16135,52.16135,0,0,0-4.2962,5.3529,9.02892,9.02892,0,0,0,3.1976.9624,7.40512,7.40512,0,0,1,3.208,1.0274c.6836.566.5534,1.9352-.3062,3.2038-1.887,2.7824-4.6588,6.2292-7.1016,9.2694C849.014,339.77572,848.0642,340.95632,847.2506,341.99832Z" class="color5652cc svgShape"></path><path fill="#cee6f8" d="M739.43778,609.38941l-3.013-1.8702c.627-1.00441,1.2958-2.02741,1.9732-3.057a65.46329,65.46329,0,0,0,3.426-5.6046c.07542-.151.1236-.26.1528-.3332a4.45328,4.45328,0,0,0-1.4718-.6982,5.42006,5.42006,0,0,1-2.6188-1.5202c-2.16378-2.6986.8136-7.3574,2.2436-9.5968.18862-.2976.3774-.5912.5578-.88041.1864-.30219.436-.67319.71282-1.084.29338-.43819.84278-1.25179,1.13418-1.78439-.128-.0808-.304-.1678-.434-.2328a6.44384,6.44384,0,0,1-.606-.327c-.2786-.172-.5996-.3262-.9266-.4844a6.386,6.386,0,0,1-2.3904-1.6502,5.43894,5.43894,0,0,1-.9644-4.8706c.6666-2.87461,2.795-5.246,4.6736-7.33961a26.4308,26.4308,0,0,0,2.6774-3.30019l3.011,1.86819a34.43859,34.43859,0,0,1-3.7656,4.75641,16.98775,16.98775,0,0,0-2.359,2.97959c-.002.00621-.0714.44221.516,1.18661a4.88558,4.88558,0,0,0,1.6436,1.0516,11.11569,11.11569,0,0,1,1.1198.588c.1426.086.29142.1594.44.23279a2.99342,2.99342,0,0,1,1.8788,3.43961c-.20338,2.15639-1.736,4.43139-2.8556,6.092-.19078.2832-.36278.5348-.49478.7466-.20562.329-.41542.6624-.62922.996a14.913,14.913,0,0,0-1.5136,2.6984.58214.58214,0,0,0,.10482.1782,3.97884,3.97884,0,0,0,1.66478.8428c1.47822.5136,4.9378,1.713,1.9288,7.5732a72.76513,72.76513,0,0,1-3.99,6.57319C740.635,607.5108,740.01658,608.45641,739.43778,609.38941Zm3.26462-26.7812Z" class="colorced3f8 svgShape"></path><path fill="#7dbcfb" d="M1097.198,719.31a72.86322,72.86322,0,0,1-3.9542-6.59221c-2.9794-5.88119.4884-7.06179,1.9708-7.56479a3.98711,3.98711,0,0,0,1.669-.8346.66482.66482,0,0,0,.107-.176,15.0008,15.0008,0,0,0-1.4992-2.7092c-.2118-.3332-.4216-.6666-.6248-.9978-.128-.2118-.302-.46561-.4884-.75061-1.1114-1.66479-2.6336-3.94819-2.8246-6.10579a2.99736,2.99736,0,0,1,1.8976-3.43021,4.61341,4.61341,0,0,0,.4404-.23039,12.37385,12.37385,0,0,1,1.1238-.583,4.8802,4.8802,0,0,0,1.6502-1.04c.5912-.7422.524-1.1784.524-1.18261a17.12274,17.12274,0,0,0-2.344-2.994,34.49724,34.49724,0,0,1-3.7386-4.77639l3.0216-1.8514a26.58839,26.58839,0,0,0,2.6584,3.31479c1.8684,2.101,3.984,4.485,4.6338,7.36381a5.459,5.459,0,0,1-.9916,4.8686,6.43133,6.43133,0,0,1-2.4008,1.6354,9.80593,9.80593,0,0,0-.9288.47819c-.195.11921-.4006.22421-.606.32481-.132.065-.3062.149-.436.2308.2872.53239.8302,1.348,1.1236,1.78839.2768.413.5222.78621.7088,1.09041.176.2892.3628.5828.5494.88259,1.4194,2.24561,4.3694,6.92121,2.191,9.60921a5.3932,5.3932,0,0,1-2.625,1.5034,4.45126,4.45126,0,0,0-1.4784.692c.0294.0732.0778.1802.1532.3332a65.298,65.298,0,0,0,3.3926,5.6236c.673,1.03559,1.3378,2.0608,1.956,3.0674l-3.0212,1.8536C1098.4352,721.2158,1097.8188,720.26821,1097.198,719.31Zm-1.306-23.95721Z" class="color807dfb svgShape"></path><path fill="#ffd66b" d="M978.0844,125.07542a15.76248,15.76248,0,0,1,7.1372-12.3558c3.9376-2.276,7.133-.432,7.133,4.1158a15.77826,15.77826,0,0,1-7.133,12.358C981.2798,131.46842,978.0844,129.62322,978.0844,125.07542Z" class="colorffc16b svgShape"></path></g></svg></g></svg>