<svg viewBox="0 0 11 11" version="1.1" xmlns="http://www.w3.org/2000/svg" xmlns:xlink="http://www.w3.org/1999/xlink"><path d="M4.58,0.703 L5.114,0.169 C5.22190683,0.0606065931 5.36855225,-0.000329259128 5.5215,-0.000329259128 C5.67444775,-0.000329259128 5.82109317,0.0606065931 5.929,0.169 L10.6,4.841 C10.7083934,4.94890683 10.7693293,5.09555225 10.7693293,5.2485 C10.7693293,5.40144775 10.7083934,5.54809317 10.6,5.656 L5.929,10.33 C5.82109317,10.4383934 5.67444775,10.4993293 5.5215,10.4993293 C5.36855225,10.4993293 5.22190683,10.4383934 5.114,10.33 L4.58,9.796 C4.47057171,9.68597403 4.40998096,9.53656812 4.41186176,9.38140135 C4.41374257,9.22623459 4.47793696,9.07834122 4.59,8.971 L7.49,6.211 L0.577,6.211 C0.424062113,6.21126552 0.277297226,6.15069721 0.169059894,6.04264747 C0.0608225616,5.93459772 -8.70822687e-07,5.78793812 -8.70822687e-07,5.635 L-8.70822687e-07,4.866 C-0.000266049813,4.71288868 0.060439408,4.56597184 0.168705624,4.45770562 C0.276971841,4.34943941 0.423888679,4.28873395 0.577,4.289 L7.487,4.289 L4.587,1.529 C4.474008,1.42178171 4.40944234,1.27324635 4.40812234,1.11748625 C4.40680234,0.961726149 4.46884136,0.812117867 4.58,0.703 Z"></path></svg>