<svg xmlns="http://www.w3.org/2000/svg" width="19" height="19" viewBox="0 0 19 19">
  <g id="Group_68" transform="translate(-1356 -1341)">
    <circle id="Ellipse_19" cx="9.5" cy="9.5" r="9.5" transform="translate(1356 1341)" fill="#e9f4ef"/>
    <path id="FontAwsome_check_" d="M3.535,72.707.153,69.324a.52.52,0,0,1,0-.736l.736-.736a.52.52,0,0,1,.736,0L3.9,70.131l4.88-4.88a.52.52,0,0,1,.736,0l.736.736a.52.52,0,0,1,0,.736L4.271,72.707a.52.52,0,0,1-.736,0Z" transform="translate(1360.296 1281.521)" fill="#008568"/>
  </g>
</svg>
